<svg width="50" height="48" viewBox="0 0 50 48" fill="none" xmlns="http://www.w3.org/2000/svg">
<path fill-rule="evenodd" clip-rule="evenodd" d="M32.8028 6C32.8028 4.89543 31.8849 4 30.7526 4H14.3514L13.9067 4.00924C8.45165 4.23636 4.10059 8.62249 4.10059 14V34L4.11006 34.4338C4.34288 39.7554 8.839 44 14.3514 44H34.8529L35.2976 43.9908C40.7527 43.7636 45.1037 39.3775 45.1037 34V18L45.0899 17.7668C44.9715 16.7721 44.105 16 43.0536 16C41.9213 16 41.0034 16.8954 41.0034 18V34L40.993 34.3525C40.8059 37.5022 38.1284 40 34.8529 40H14.3514L13.99 39.9898C10.7614 39.8073 8.2009 37.1954 8.2009 34V14L8.21134 13.6475C8.39841 10.4978 11.0759 8 14.3514 8H30.7526L30.9917 7.98654C32.0113 7.87101 32.8028 7.02567 32.8028 6ZM35.9077 16.285C34.9368 15.7167 33.6775 16.0238 33.0949 16.971L29.2836 23.1679L29.1657 23.3389C28.4863 24.2226 27.2013 24.4017 26.2955 23.7389L25.0122 22.8L24.6938 22.5818C22.0009 20.8562 18.3612 21.451 16.4015 24L12.7112 28.8L12.5697 29.01C12.0644 29.873 12.2851 30.9882 13.1213 31.6C14.0271 32.2627 15.3121 32.0837 15.9915 31.2L19.6818 26.4L19.8489 26.2086C20.5566 25.4938 21.7159 25.3882 22.552 26L23.8353 26.9389L24.1537 27.1571C26.8466 28.8827 30.4862 28.2879 32.4459 25.7389C32.5728 25.5739 32.6908 25.4027 32.7995 25.2259L36.6109 19.029L36.7221 18.8221C37.1452 17.9097 36.8093 16.8127 35.9077 16.285Z" fill="#EBF5FF"/>
<ellipse opacity="0.6" cx="41.0036" cy="8" rx="4.10031" ry="4" fill="#EBF5FF"/>
</svg>
