<?xml version="1.0" standalone="no"?>
<!DOCTYPE svg PUBLIC "-//W3C//DTD SVG 20010904//EN"
 "http://www.w3.org/TR/2001/REC-SVG-20010904/DTD/svg10.dtd">
<svg version="1.0" xmlns="http://www.w3.org/2000/svg"
 width="50.000000pt" height="50.000000pt" viewBox="0 0 50.000000 50.000000"
 preserveAspectRatio="xMidYMid meet">

<g transform="translate(0.000000,50.000000) scale(0.100000,-0.100000)"
fill="#000000" stroke="none">
<path d="M154 467 c-11 -7 -28 -19 -38 -27 -73 -62 -86 -89 -70 -149 6 -23 6
-46 0 -63 -8 -23 -6 -33 12 -58 12 -16 22 -38 22 -50 0 -22 33 -60 51 -60 7 0
17 -8 24 -17 19 -25 159 -29 184 -5 9 10 30 22 46 27 20 7 33 20 39 40 5 17
16 45 25 62 12 25 13 39 5 61 -7 18 -7 37 -1 55 14 44 0 93 -36 121 -18 15
-42 36 -54 48 -19 19 -36 22 -105 25 -52 1 -91 -2 -104 -10z m84 -79 c2 -56 0
-68 -13 -68 -9 0 -15 9 -15 25 0 16 -6 25 -15 25 -8 0 -24 5 -34 12 -24 15
-51 4 -51 -22 0 -26 27 -37 51 -22 26 17 29 15 29 -13 0 -20 5 -25 25 -25 23
0 25 -4 25 -40 0 -39 -1 -40 -35 -40 -31 0 -35 -3 -35 -25 0 -14 -5 -34 -12
-44 -15 -24 -4 -51 22 -51 26 0 37 27 22 51 -20 31 -14 49 13 49 26 0 26 0 23
-77 -3 -76 -4 -78 -30 -81 -16 -2 -31 4 -40 15 -7 10 -26 24 -42 31 -23 10
-27 17 -23 39 3 19 -2 31 -21 48 -20 17 -24 27 -18 48 7 29 25 34 55 15 24
-15 51 -4 51 22 0 26 -27 37 -51 22 -29 -19 -48 -14 -55 13 -8 33 2 72 26 93
65 59 88 72 120 69 24 -2 25 -6 28 -69z m108 47 c14 -14 29 -25 34 -25 16 0
60 -62 60 -85 0 -13 -5 -36 -10 -51 -8 -19 -8 -30 0 -38 13 -13 13 -53 0 -61
-5 -3 -10 3 -10 14 0 18 -6 21 -45 21 -47 0 -53 7 -33 39 15 24 4 51 -22 51
-26 0 -37 -27 -22 -51 7 -10 12 -28 12 -39 0 -17 7 -20 44 -20 43 0 43 0 50
-42 7 -45 -8 -68 -44 -68 -8 0 -21 -9 -28 -21 -9 -14 -21 -19 -40 -17 -23 3
-27 8 -30 41 -3 40 11 48 47 25 24 -15 51 -4 51 22 0 26 -27 37 -51 22 -44
-28 -49 -19 -49 93 l0 105 35 0 c19 0 44 -5 54 -12 24 -15 51 -4 51 22 0 26
-27 37 -51 22 -10 -7 -35 -12 -54 -12 -34 0 -35 1 -35 38 0 21 3 42 7 45 14
15 55 6 79 -18z m-196 -75 c0 -5 -4 -10 -10 -10 -5 0 -10 5 -10 10 0 6 5 10
10 10 6 0 10 -4 10 -10z m230 0 c0 -5 -4 -10 -10 -10 -5 0 -10 5 -10 10 0 6 5
10 10 10 6 0 10 -4 10 -10z m-50 -90 c0 -5 -4 -10 -10 -10 -5 0 -10 5 -10 10
0 6 5 10 10 10 6 0 10 -4 10 -10z m-180 -10 c0 -5 -4 -10 -10 -10 -5 0 -10 5
-10 10 0 6 5 10 10 10 6 0 10 -4 10 -10z m40 -130 c0 -5 -4 -10 -10 -10 -5 0
-10 5 -10 10 0 6 5 10 10 10 6 0 10 -4 10 -10z m150 0 c0 -5 -4 -10 -10 -10
-5 0 -10 5 -10 10 0 6 5 10 10 10 6 0 10 -4 10 -10z"/>
</g>
</svg>
