<svg width="24" height="24" viewBox="0 0 24 24" fill="none" xmlns="http://www.w3.org/2000/svg">
<path d="M8.05631 6.53939C5.15363 7.65878 3.57366 10.8601 4.10035 13.8152C4.62699 16.4569 5.86853 18.9998 7.78685 20.5314C9.10727 21.5857 10.2213 20.5314 12 20.5314C13.7787 20.5314 14.8927 21.5857 16.2132 20.5314C18.1315 18.9998 19.373 16.4569 19.8997 13.8152C20.4263 10.8601 18.8464 7.65878 15.9437 6.53939C14.1066 5.97973 13.4363 7.0991 12 7.0991M8.05631 6.53939C9.89343 5.97974 10.5637 7.0991 12 7.0991M8.05631 6.53939L16 8C17.3333 8.66667 19.1 10.1 15.5 10.5C11.9 10.9 13.6667 16.6667 15 19.5L18 17.5L18.5 13.5V12V10C17.5904 10.3949 15.7169 11.4478 15.5 12.5C15.2831 13.5522 15.0763 15.6051 15 16.5L16.5 17L17 13.5L18 12H17L15.5 13.8152L16 15.5L17.5 16.5V14.5L15 20V17.5C14.3333 16.5 13.2 14.2 14 13C14.8 11.8 14.6667 11.5 14.5 11.5V14L15.5 9L16.2132 9.31728L12 8.5L10 8L17 9.5L7.5 8V7.5H8.5L12 10.5L14.5 10L12 9.5L6.5 9V8.5L5.5 10L10 10.5L12.5 11.5L13 11L12 13.8152L13.5 19.5L14 20H9L8.05631 19.5L7 18.5L6 16L5.5 15L5 13.5V12L5.5 11L7 11.5H9L10.5 12L11 12.5L10.5 13.5L11.5 12.5L11 14.5L11.5 16.5L12 18.5L12.5 19H9.5L8 18L7.78685 16.5L7 15L6.5 13.5V12.5L6 12L8.5 12.5L10 13L10.5 14L10 16L10.5 18L9 17.5V16.5L8.5 15L8 14L7.5 13.5L8.5 13L9.5 14V15M12 7.0991C11.8643 5.20564 12 4.5 11 2.5" stroke="#0E9F6E" stroke-width="1.5" stroke-linecap="round"/>
</svg>
