<svg width="32" height="33" viewBox="0 0 32 33" fill="none" xmlns="http://www.w3.org/2000/svg">
<path d="M12 4.5H13C14.6569 4.5 16 5.84315 16 7.5V11.1667" stroke="#1D4ED8" stroke-width="3"/>
<path d="M20 4.5H19C17.3431 4.5 16 5.84315 16 7.5V11.1667" stroke="#1D4ED8" stroke-width="3"/>
<path d="M11.7055 9.44887L14.8858 10.721C15.601 11.0071 16.3989 11.0071 17.1142 10.721L20.2945 9.44887C21.6616 8.90201 23.2236 9.42819 23.9811 10.6908L25.901 13.8907C26.3834 14.6946 26.4622 15.6778 26.114 16.5483L22.5442 25.4728C21.8924 27.1024 19.9869 27.8268 18.4171 27.0419L17.3416 26.5042C16.497 26.0819 15.5029 26.0819 14.6583 26.5042L13.5828 27.0419C12.013 27.8268 10.1076 27.1024 9.45576 25.4728L5.88597 16.5483C5.53777 15.6778 5.61656 14.6946 6.09892 13.8907L8.01883 10.6908C8.7764 9.42819 10.3383 8.90201 11.7055 9.44887Z" stroke="#1D4ED8" stroke-width="3"/>
</svg>
