<svg width="16" height="16" viewBox="0 0 16 16" fill="none" xmlns="http://www.w3.org/2000/svg">
<path d="M14.6066 9.51989C14.5126 9.42421 14.3841 9.37031 14.25 9.37031C14.1158 9.37031 13.9873 9.42421 13.8933 9.51989L11.6266 11.7932V5.79323C11.6266 5.51709 11.4028 5.29323 11.1266 5.29323C10.8505 5.29323 10.6266 5.51709 10.6266 5.79323V11.7932L8.3533 9.51989C8.22706 9.39247 8.04244 9.34207 7.86897 9.38768C7.6955 9.43329 7.55954 9.56798 7.5123 9.74101C7.46507 9.91405 7.51373 10.0991 7.63996 10.2266L10.7733 13.3332C10.8183 13.38 10.8729 13.4164 10.9333 13.4399C10.9943 13.4665 11.0601 13.4801 11.1266 13.4799C11.191 13.4802 11.2547 13.4665 11.3133 13.4399C11.3757 13.4163 11.4324 13.38 11.48 13.3332L14.6066 10.2066C14.7886 10.0139 14.7886 9.7126 14.6066 9.51989Z" fill="#6B7280"/>
<path d="M7.64663 6.47989C7.84412 6.67563 8.16247 6.67563 8.35996 6.47989C8.55493 6.28468 8.55493 5.96844 8.35996 5.77323L5.22663 2.66656C5.18167 2.61981 5.12708 2.58341 5.06663 2.55989C4.94426 2.51324 4.809 2.51324 4.68663 2.55989C4.62505 2.58502 4.56857 2.62116 4.51996 2.66656L1.3933 5.77323C1.19833 5.96844 1.19833 6.28468 1.3933 6.47989C1.48616 6.57519 1.61357 6.62894 1.74663 6.62894C1.87969 6.62894 2.00711 6.57519 2.09996 6.47989L4.3733 4.20656V10.2066C4.3733 10.3852 4.4686 10.5503 4.6233 10.6396C4.778 10.7289 4.9686 10.7289 5.1233 10.6396C5.278 10.5503 5.3733 10.3852 5.3733 10.2066V4.20656L7.64663 6.47989Z" fill="#6B7280"/>
</svg>
