<svg width="32" height="33" viewBox="0 0 32 33" fill="none" xmlns="http://www.w3.org/2000/svg">
<path fill-rule="evenodd" clip-rule="evenodd" d="M20.1667 0.5L19.7084 0.624675C19.7084 0.624675 18.5052 0.884416 17.2917 1.62208C16.0781 2.35974 14.6667 3.77792 14.6667 5.9026C14.6667 8.02727 16.0781 9.44546 17.2917 10.1831C17.8656 10.5329 18.2266 11.154 18.0602 11.8052C17.95 12.2364 17.8429 12.7395 17.7553 13.3096C17.5609 14.5753 13.9473 16.5416 12.6667 16.5416C11.7031 16.5416 10.8229 16.8481 9.83335 17.2481C8.84377 17.6481 7.7969 18.1883 6.83335 18.7026C4.91148 19.726 3.29169 20.739 3.29169 20.739C2.90401 20.971 2.66669 21.3896 2.66669 21.8414V28.5035C2.66669 29.017 2.95712 29.4864 3.41669 29.7156C3.41669 29.7156 9.01565 32.5 16 32.5C22.9753 32.5 28.5688 29.7228 28.5833 29.7156C28.5838 29.7154 28.5836 29.7155 28.584 29.7152C29.0398 29.4879 29.3334 29.0197 29.3334 28.5104C29.3334 21.861 28.5886 16.0844 27.7084 11.8039C27.2709 9.66364 26.8229 7.91299 26.375 6.56753C25.9271 5.22208 25.6667 4.43247 25 3.7C24.2344 2.85325 23.1563 2.16234 22.25 1.62208C21.3438 1.08182 20.5834 0.707792 20.5834 0.707792L20.1667 0.5ZM19.9035 3.16667C20.1592 3.29749 20.3836 3.37075 20.9472 3.71088C21.7613 4.19754 22.6902 4.87781 23.0346 5.25981C22.925 5.13946 23.4625 6.00811 23.8696 7.22737C24.2766 8.44662 24.741 10.1421 25.1637 12.2091C25.9674 16.1337 26.5988 21.4869 26.6667 27.5727C25.6543 28.0332 21.5682 29.8333 16.0209 29.8333C10.4371 29.8333 6.30922 28.0175 5.33335 27.5727V22.5492C5.76649 22.2771 6.60667 21.7538 8.08874 20.9584C9.00198 20.4717 9.98828 20.0113 10.8441 19.6606C11.7 19.31 12.4723 19.1164 12.681 19.1164C14.3771 19.1164 15.7443 20.3776 15.9791 22.005C16.0751 22.6543 16.6323 23.1353 17.2887 23.1353H19.6534C20.5839 23.1353 21.2291 22.2075 20.9054 21.3352C18.9485 15.9506 21.2394 10.2415 21.2394 10.2415L21.8656 8.7763L20.321 8.44139C20.321 8.44139 19.5225 8.25301 18.7345 7.77159C17.9465 7.29016 17.3568 6.71455 17.3568 5.7203C17.3568 4.72606 17.9465 4.15044 18.7345 3.66902C19.3138 3.31319 19.6321 3.24516 19.9035 3.16667Z" fill="#1D4ED8"/>
</svg>
