<svg width="24" height="24" viewBox="0 0 24 24" fill="none" xmlns="http://www.w3.org/2000/svg">
<g clip-path="url(#clip0_2933_9378)">
<path d="M12.0001 10.5001C12.0796 10.5001 12.1559 10.4685 12.2122 10.4122C12.2685 10.356 12.3001 10.2797 12.3001 10.2001V9.9001C12.3001 9.82053 12.2685 9.74423 12.2122 9.68797C12.1559 9.6317 12.0796 9.6001 12.0001 9.6001C11.9205 9.6001 11.8442 9.6317 11.7879 9.68797C11.7317 9.74423 11.7001 9.82053 11.7001 9.9001V10.2001C11.7001 10.2797 11.7317 10.356 11.7879 10.4122C11.8442 10.4685 11.9205 10.5001 12.0001 10.5001Z" fill="black"/>
<path d="M17.11 14.0769C17.3674 13.2954 17.0671 11.9991 16.7143 10.5021C16.315 8.80771 15.8623 6.88741 16.2757 5.70691L17.0833 3.39901C17.0963 3.36182 17.1018 3.32243 17.0996 3.28309C17.0974 3.24376 17.0874 3.20525 17.0703 3.16976C17.0532 3.13427 17.0293 3.10249 16.9999 3.07625C16.9705 3.05001 16.9362 3.02981 16.8991 3.01681C16.8619 3.0038 16.8225 2.99826 16.7831 3.00048C16.7438 3.0027 16.7053 3.01264 16.6698 3.02975C16.5981 3.06429 16.5431 3.1259 16.5169 3.20101L15.7093 5.50891C15.5656 5.95815 15.4997 6.42859 15.5143 6.90001H8.49006C8.50163 6.4284 8.43409 5.95819 8.29026 5.50891L7.48326 3.20101C7.47026 3.16382 7.45006 3.12955 7.42381 3.10017C7.39757 3.07078 7.3658 3.04685 7.33031 3.02975C7.29482 3.01264 7.2563 3.0027 7.21697 3.00048C7.17764 2.99826 7.13825 3.0038 7.10106 3.01681C7.06387 3.02981 7.0296 3.05001 7.00022 3.07625C6.97083 3.10249 6.94691 3.13427 6.9298 3.16976C6.9127 3.20525 6.90275 3.24376 6.90053 3.28309C6.89831 3.32243 6.90386 3.36182 6.91686 3.39901L7.72476 5.70691C8.14626 6.91171 7.69476 8.87161 7.29366 10.6008C6.95796 12.054 6.67206 13.3119 6.89136 14.07L6.82746 14.3262C6.28416 16.4982 6.19086 17.2962 6.59496 19.5714L6.79836 20.7498C6.81188 20.8282 6.856 20.898 6.92101 20.9439C6.98602 20.9898 7.0666 21.008 7.14501 20.9945C7.22342 20.9809 7.29325 20.9368 7.33913 20.8718C7.38501 20.8068 7.40318 20.7262 7.38966 20.6478L7.18596 19.47C6.97682 18.5285 6.90857 17.5612 6.98346 16.5996L11.7001 19.08V20.7C11.7001 20.7796 11.7317 20.8559 11.7879 20.9121C11.8442 20.9684 11.9205 21 12.0001 21C12.0796 21 12.1559 20.9684 12.2122 20.9121C12.2685 20.8559 12.3001 20.7796 12.3001 20.7V19.08L17.0167 16.5975C17.0914 17.5596 17.0231 18.5274 16.8139 19.4694L16.6105 20.6478C16.597 20.7262 16.6152 20.8068 16.6611 20.8718C16.707 20.9367 16.7768 20.9808 16.8553 20.9943C16.8721 20.9973 16.8892 20.9988 16.9063 20.9988C16.977 20.9988 17.0454 20.9738 17.0994 20.9282C17.1535 20.8827 17.1897 20.8195 17.2018 20.7498L17.4049 19.5729C17.8093 17.2971 17.716 16.4982 17.1727 14.3262L17.11 14.0769ZM7.87866 10.7358C8.15155 9.67265 8.34775 8.59127 8.46576 7.50001H15.5437C15.6648 8.55916 15.8609 9.60839 16.1305 10.6398C16.4179 11.8596 16.7128 13.1151 16.5772 13.773H7.43556C7.32726 13.1331 7.59366 11.9679 7.87866 10.7358ZM12.0001 18.561L7.07436 15.9684C7.15176 15.5361 7.26276 15.0594 7.40916 14.4726L7.43436 14.373H16.5658L16.591 14.4726C16.7374 15.0594 16.8484 15.5361 16.9258 15.9684L12.0001 18.561Z" fill="black" stroke="#233876"/>
<path d="M20.6999 12.5999H19.0241L19.412 12.212C19.4667 12.1554 19.4969 12.0797 19.4962 12.001C19.4956 11.9223 19.464 11.8471 19.4084 11.7915C19.3528 11.7359 19.2775 11.7043 19.1989 11.7036C19.1202 11.7029 19.0444 11.7332 18.9878 11.7878L18.0878 12.6878C18.0316 12.7441 18 12.8204 18 12.8999C18 12.9795 18.0316 13.0558 18.0878 13.112L18.9878 14.012C19.0444 14.0667 19.1202 14.0969 19.1989 14.0962C19.2775 14.0955 19.3528 14.064 19.4084 14.0084C19.464 13.9528 19.4956 13.8775 19.4962 13.7988C19.4969 13.7202 19.4667 13.6444 19.412 13.5878L19.0241 13.1999H20.6999C20.7795 13.1999 20.8558 13.1683 20.9121 13.1121C20.9683 13.0558 20.9999 12.9795 20.9999 12.8999C20.9999 12.8204 20.9683 12.7441 20.9121 12.6878C20.8558 12.6315 20.7795 12.5999 20.6999 12.5999Z" fill="black" stroke="#233876"/>
<path d="M5.0121 11.7879C4.98443 11.7592 4.95132 11.7364 4.91472 11.7206C4.87812 11.7049 4.83875 11.6966 4.79892 11.6963C4.75909 11.696 4.71958 11.7035 4.68271 11.7186C4.64584 11.7337 4.61235 11.756 4.58418 11.7842C4.55601 11.8123 4.53374 11.8458 4.51865 11.8827C4.50357 11.9196 4.49598 11.9591 4.49632 11.9989C4.49667 12.0387 4.50495 12.0781 4.52067 12.1147C4.53639 12.1513 4.55925 12.1844 4.5879 12.2121L4.9758 12.6H3.3C3.22044 12.6 3.14413 12.6316 3.08787 12.6878C3.03161 12.7441 3 12.8204 3 12.9C3 12.9795 3.03161 13.0558 3.08787 13.1121C3.14413 13.1684 3.22044 13.2 3.3 13.2H4.9758L4.5879 13.5879C4.55925 13.6155 4.53639 13.6487 4.52067 13.6853C4.50495 13.7219 4.49667 13.7612 4.49632 13.8011C4.49598 13.8409 4.50357 13.8804 4.51865 13.9173C4.53374 13.9541 4.55601 13.9876 4.58418 14.0158C4.61235 14.044 4.64584 14.0662 4.68271 14.0813C4.71958 14.0964 4.75909 14.104 4.79892 14.1037C4.83875 14.1033 4.87812 14.095 4.91472 14.0793C4.95132 14.0636 4.98443 14.0407 5.0121 14.0121L5.9121 13.1121C5.96834 13.0558 5.99994 12.9795 5.99994 12.9C5.99994 12.8204 5.96834 12.7441 5.9121 12.6879L5.0121 11.7879Z" fill="black" stroke="#233876"/>
</g>
<defs>
<clipPath id="clip0_2933_9378">
<rect width="19.2" height="24" fill="white" transform="translate(2.40002)"/>
</clipPath>
</defs>
</svg>
