<svg width="16" height="16" viewBox="0 0 16 16" fill="none" xmlns="http://www.w3.org/2000/svg">
<path d="M10.8987 5.48504C10.6481 5.24365 10.3636 5.06325 10.0433 4.94816C8.95472 4.55611 7.78963 5.03954 7.37898 5.26757C7.30287 5.22274 7.22504 5.18201 7.14356 5.14839C6.03738 4.69233 4.78501 5.38202 4.08841 5.87752C3.94027 5.84864 3.78246 5.83355 3.61476 5.83355C2.46408 5.83355 1.12012 6.51312 1.12012 8.42745C1.12012 9.37492 1.3865 10.1004 1.91153 10.5827C2.51912 11.1412 3.28882 11.1998 3.58079 11.1998C3.65239 11.1998 3.69539 11.1961 3.70012 11.1955H12.3113C12.7125 11.1955 13.6821 11.1192 14.3003 10.4377C14.6741 10.0254 14.8801 9.39626 14.8801 8.66583C14.8801 6.93426 13.1021 5.52341 10.8987 5.48504ZM13.9818 10.1485C13.4654 10.7181 12.5826 10.7649 12.3089 10.7649H12.3001L3.68141 10.7657C3.6726 10.7666 2.82077 10.8332 2.20221 10.2655C1.76963 9.86762 1.55012 9.24948 1.55012 8.42745C1.55012 6.83275 2.61673 6.2644 3.61498 6.2644C4.68482 6.2644 5.22726 6.97629 5.22726 8.37982C5.22726 8.49901 5.32358 8.59535 5.44226 8.59535C5.56094 8.59535 5.65726 8.49901 5.65726 8.37982C5.65726 7.20842 5.28639 6.41505 4.59688 6.0549C5.19243 5.6788 6.16982 5.2124 6.98016 5.54668C7.69912 5.84304 8.18029 6.72003 8.40948 8.15222C8.42668 8.25826 8.51805 8.33369 8.62147 8.33369C8.63286 8.33369 8.64404 8.33283 8.65565 8.33089C8.77304 8.31193 8.85281 8.20114 8.83389 8.0839C8.64555 6.90818 8.28521 6.06288 7.76039 5.55681C8.19706 5.35616 9.09619 5.05894 9.90867 5.35702C10.684 5.64173 11.2268 6.4032 11.5214 7.62137C11.5448 7.72008 11.6332 7.78625 11.7302 7.78625C11.7469 7.78625 11.7639 7.78431 11.7809 7.78022C11.8963 7.7522 11.9671 7.6356 11.9391 7.52007C11.7845 6.88146 11.5633 6.35406 11.2787 5.93744C13.0653 6.11396 14.4501 7.26855 14.4501 8.66583C14.4501 9.27965 14.2794 9.81999 13.9818 10.1485Z" fill="#233876" stroke="#233876"/>
</svg>
