<svg width="16" height="17" viewBox="0 0 16 17" fill="none" xmlns="http://www.w3.org/2000/svg">
<path d="M5.65066 11.2033C6.16217 11.2033 6.67914 11.1144 7.17854 10.9284C7.55248 10.7898 7.96248 10.7973 8.33127 10.9502C8.56127 11.0454 8.804 11.0928 9.04582 11.0928C9.34067 11.0928 9.63461 11.0226 9.904 10.8837C9.96006 10.855 10.0116 10.8204 10.0619 10.7845L12.5998 12.0861C12.4934 12.4712 12.6637 12.8928 13.0243 13.0779C13.1419 13.1381 13.267 13.1668 13.3904 13.1668C13.6934 13.1668 13.9858 12.9943 14.1295 12.6962C14.2116 12.5265 14.2337 12.3349 14.1983 12.1517C14.3467 12.079 14.471 11.9626 14.5552 11.8125C14.6655 11.6162 14.6949 11.3877 14.638 11.1687C14.5813 10.9496 14.4449 10.7661 14.2543 10.6525C14.0637 10.5389 13.8419 10.5083 13.6292 10.5673C13.4501 10.6163 13.2955 10.7274 13.1855 10.8769L10.6464 9.57493C10.644 9.5119 10.6398 9.44886 10.6279 9.38551C10.5286 8.82972 10.2019 8.34414 9.73158 8.05267C9.39037 7.84171 9.13764 7.50967 9.01976 7.11834C8.42127 5.12766 6.57824 3.78078 4.56823 3.83508C3.68004 3.86036 2.85428 4.24014 2.24368 4.90453C1.63307 5.56893 1.31004 6.43897 1.33428 7.35364C1.35246 8.03675 1.5658 8.6921 1.95125 9.24851C2.81762 10.499 4.21399 11.2033 5.65066 11.2033ZM13.708 10.8678C13.8422 10.831 13.9831 10.8497 14.104 10.9221C14.2243 10.9936 14.3107 11.11 14.3467 11.2486C14.4207 11.5347 14.2549 11.829 13.9773 11.9055C13.9737 11.9064 13.9716 11.9089 13.9686 11.9101C13.9655 11.9108 13.9622 11.9101 13.9595 11.912C13.9528 11.9148 13.9483 11.9198 13.9419 11.9236C13.9334 11.9292 13.9243 11.9339 13.917 11.941C13.9098 11.9476 13.904 11.9554 13.898 11.9632C13.8916 11.9707 13.8864 11.9788 13.8822 11.9875C13.8773 11.9963 13.8752 12.0059 13.8728 12.0156C13.8704 12.0253 13.8673 12.0343 13.8667 12.0443C13.8661 12.0546 13.8673 12.0649 13.8689 12.0755C13.8698 12.0824 13.868 12.0896 13.8701 12.0964C13.8707 12.0986 13.8731 12.0999 13.8737 12.1024C13.8749 12.1067 13.8743 12.1108 13.8764 12.1152C13.9328 12.2578 13.9267 12.4188 13.8598 12.557C13.7316 12.8217 13.4177 12.9303 13.1601 12.798C12.9031 12.666 12.798 12.343 12.9261 12.0777C12.9634 12.0003 12.9328 11.907 12.8576 11.8686L10.3061 10.5601C10.4643 10.3751 10.5731 10.1504 10.621 9.90885L13.1731 11.2173C13.1937 11.2276 13.2155 11.232 13.237 11.2326C13.2383 11.2326 13.2395 11.2336 13.2407 11.2336C13.2443 11.2336 13.2467 11.2311 13.2501 11.2308C13.2707 11.2292 13.2907 11.2236 13.3092 11.2133C13.3149 11.2105 13.3198 11.2077 13.3252 11.2042C13.3458 11.1893 13.3646 11.1718 13.3764 11.1465C13.4425 11.0095 13.5634 10.9078 13.708 10.8678ZM2.46398 5.11924C3.01913 4.51476 3.76974 4.16993 4.57702 4.14715C6.46308 4.08692 8.17218 5.35329 8.73127 7.20978C8.87097 7.67476 9.17127 8.06859 9.57673 8.3198C9.97249 8.56477 10.2473 8.97358 10.3307 9.44106C10.4146 9.91165 10.1837 10.3904 9.76855 10.6048C9.35552 10.8179 8.87309 10.8385 8.44491 10.6609C8.00672 10.479 7.52036 10.4703 7.07581 10.635C5.30005 11.2941 3.29429 10.65 2.19852 9.06751C1.84852 8.56196 1.65428 7.96623 1.63792 7.34521C1.6158 6.51387 1.90883 5.7234 2.46398 5.11924Z" fill="#233876" stroke="#233876" stroke-width="1.5"/>
</svg>
