<svg width="16" height="16" viewBox="0 0 16 16" fill="none" xmlns="http://www.w3.org/2000/svg">
<path d="M14.3332 5.33322C14.3323 5.5982 14.2269 5.85212 14.0399 6.03988L8.70657 11.3732C8.51995 11.5621 8.26546 11.6685 7.99991 11.6685C7.73436 11.6685 7.47986 11.5621 7.29324 11.3732L1.95991 6.03988C1.69237 5.79059 1.58224 5.41514 1.67273 5.06083C1.76321 4.70652 2.03988 4.42985 2.39419 4.33937C2.7485 4.24888 3.12395 4.35901 3.37324 4.62655L7.99991 9.25322L12.6266 4.62655C12.8132 4.43763 13.0677 4.33131 13.3332 4.33131C13.5988 4.33131 13.8533 4.43763 14.0399 4.62655C14.2269 4.81432 14.3323 5.06823 14.3332 5.33322Z" fill="#1D4ED8"/>
</svg>
