<svg width="17" height="16" viewBox="0 0 17 16" fill="none" xmlns="http://www.w3.org/2000/svg">
<g clip-path="url(#clip0_3035_5650)">
<path d="M13.6583 2.35227C12.636 1.40005 11.3864 0.921924 10.1418 1.01041C6.24585 1.28207 5.47387 3.90276 5.35993 5.45216C5.32078 6.86555 4.14367 7.92084 3.44553 8.42404L3.42783 8.43677C2.43814 9.15031 1.58336 9.7664 1.36187 11.4028C1.23083 12.3705 1.55984 13.4412 2.2204 14.1972C2.69974 14.7459 3.57887 15.3999 5.04426 15.3999C10.0483 15.3999 13.5434 11.5874 13.6734 11.4415C13.7577 11.3639 15.7366 9.51378 15.7331 7.08485C15.7306 5.35543 14.9356 3.542 13.6583 2.35227ZM13.321 11.0925C13.2866 11.1306 9.82291 14.9034 5.04426 14.9034C3.76518 14.9034 3.00606 14.3417 2.59437 13.8705C2.02521 13.2193 1.74153 12.2992 1.8538 11.4695C2.04678 10.0445 2.74786 9.53908 3.71816 8.83959L3.73598 8.82673C4.50843 8.26981 5.81115 7.0927 5.85564 5.47736C6.09239 2.26739 8.66435 1.61118 10.1763 1.50571C11.2851 1.42838 12.3995 1.85824 13.3198 2.71567C14.4998 3.8146 15.2342 5.4891 15.2365 7.08555C15.2397 9.29296 13.3559 11.0588 13.321 11.0925Z" fill="#233876" stroke="#233876"/>
<path d="M11.016 4.47607C10.1946 4.47607 9.52637 5.14428 9.52637 5.96571C9.52637 6.78715 10.1946 7.45535 11.016 7.45535C11.8374 7.45535 12.5056 6.78715 12.5056 5.96571C12.5056 5.14428 11.8374 4.47607 11.016 4.47607ZM11.016 6.9588C10.4684 6.9588 10.0229 6.5133 10.0229 5.96571C10.0229 5.41812 10.4684 4.97262 11.016 4.97262C11.5636 4.97262 12.0091 5.41812 12.0091 5.96571C12.0091 6.5133 11.5636 6.9588 11.016 6.9588Z" fill="#233876" stroke="#233876"/>
</g>
<defs>
<clipPath id="clip0_3035_5650">
<rect width="16" height="16" fill="white" transform="translate(0.333496)"/>
</clipPath>
</defs>
</svg>
