<svg width="25" height="24" viewBox="0 0 25 24" fill="none" xmlns="http://www.w3.org/2000/svg">
<path d="M12.5 7.0991C11.0637 7.0991 10.3934 5.97974 8.55631 6.53939C5.65363 7.65878 4.07366 10.8601 4.60035 13.8152C5.12699 16.4569 6.36853 18.9998 8.28685 20.5314C9.60727 21.5857 10.7213 20.5314 12.5 20.5314C14.2787 20.5314 15.3927 21.5857 16.7132 20.5314C18.6315 18.9998 19.873 16.4569 20.3997 13.8152C20.9263 10.8601 19.3464 7.65878 16.4437 6.53939C14.6066 5.97973 13.9363 7.0991 12.5 7.0991ZM12.5 7.0991C12.3643 5.20564 12.5 4.5 11.5 2.5" stroke="#233876" stroke-width="1.5" stroke-linecap="round"/>
</svg>
