<svg width="20" height="20" viewBox="0 0 20 20" fill="none" xmlns="http://www.w3.org/2000/svg">
<path d="M9.99992 5.5C10.9204 5.5 11.6666 4.82843 11.6666 4C11.6666 3.17157 10.9204 2.5 9.99992 2.5C9.07944 2.5 8.33325 3.17157 8.33325 4C8.33325 4.82843 9.07944 5.5 9.99992 5.5Z" fill="#6B7280"/>
<path d="M9.99992 11.5C10.9204 11.5 11.6666 10.8284 11.6666 10C11.6666 9.17157 10.9204 8.5 9.99992 8.5C9.07944 8.5 8.33325 9.17157 8.33325 10C8.33325 10.8284 9.07944 11.5 9.99992 11.5Z" fill="#6B7280"/>
<path d="M9.99992 17.5C10.9204 17.5 11.6666 16.8284 11.6666 16C11.6666 15.1716 10.9204 14.5 9.99992 14.5C9.07944 14.5 8.33325 15.1716 8.33325 16C8.33325 16.8284 9.07944 17.5 9.99992 17.5Z" fill="#6B7280"/>
</svg>
