<svg width="25" height="24" viewBox="0 0 25 24" fill="none" xmlns="http://www.w3.org/2000/svg">
<path fill-rule="evenodd" clip-rule="evenodd" d="M6.48458 4.98645C5.93306 4.99507 5.49265 5.44859 5.5002 6.00012V11.8322C5.48235 11.9401 5.48235 12.0503 5.5002 12.1583V18.0001C5.4951 18.3608 5.68458 18.6962 5.99608 18.878C6.30757 19.0598 6.69283 19.0598 7.00433 18.878C7.31583 18.6962 7.5053 18.3608 7.5002 18.0001V13.0001H17.5002V18.0001C17.4951 18.3608 17.6846 18.6962 17.9961 18.878C18.3076 19.0598 18.6928 19.0598 19.0043 18.878C19.3158 18.6962 19.5053 18.3608 19.5002 18.0001V12.1681C19.5181 12.0601 19.5181 11.9499 19.5002 11.8419V6.00012C19.5039 5.72982 19.398 5.46954 19.2067 5.27857C19.0154 5.08761 18.7549 4.98223 18.4846 4.98645C17.9331 4.99507 17.4927 5.44859 17.5002 6.00012V11.0001H7.5002V6.00012C7.5039 5.72982 7.39803 5.46954 7.20669 5.27857C7.01536 5.08761 6.75487 4.98223 6.48458 4.98645Z" fill="#E02424"/>
<path fill-rule="evenodd" clip-rule="evenodd" d="M3.48446 6.98645C2.93294 6.99507 2.49253 7.44859 2.50008 8.00012V11.0001H1.50008C1.13945 10.995 0.804001 11.1845 0.622195 11.496C0.440388 11.8075 0.440388 12.1928 0.622195 12.5042C0.804001 12.8157 1.13945 13.0052 1.50008 13.0001H2.50008V16.0001C2.49498 16.3608 2.68446 16.6962 2.99596 16.878C3.30745 17.0598 3.69271 17.0598 4.00421 16.878C4.31571 16.6962 4.50518 16.3608 4.50008 16.0001V12.1681C4.51793 12.0601 4.51793 11.9499 4.50008 11.8419V8.00012C4.50378 7.72982 4.39791 7.46954 4.20657 7.27857C4.01524 7.08761 3.75475 6.98223 3.48446 6.98645ZM21.4845 6.98645C20.9329 6.99507 20.4925 7.44859 20.5001 8.00012V11.8322C20.4822 11.9401 20.4822 12.0503 20.5001 12.1583V16.0001C20.495 16.3608 20.6845 16.6962 20.996 16.878C21.3075 17.0598 21.6927 17.0598 22.0042 16.878C22.3157 16.6962 22.5052 16.3608 22.5001 16.0001V13.0001H23.5001C23.8607 13.0052 24.1962 12.8157 24.378 12.5042C24.5598 12.1928 24.5598 11.8075 24.378 11.496C24.1962 11.1845 23.8607 10.995 23.5001 11.0001H22.5001V8.00012C22.5038 7.72982 22.3979 7.46954 22.2066 7.27857C22.0152 7.08761 21.7548 6.98223 21.4845 6.98645Z" fill="#E02424"/>
</svg>
