<svg width="26" height="24" viewBox="0 0 26 24" fill="none" xmlns="http://www.w3.org/2000/svg">
<path fill-rule="evenodd" clip-rule="evenodd" d="M6.98458 4.98645C6.43306 4.99507 5.99265 5.44859 6.0002 6.00012V11.8322C5.98235 11.9401 5.98235 12.0503 6.0002 12.1583V18.0001C5.9951 18.3608 6.18458 18.6962 6.49608 18.878C6.80757 19.0598 7.19283 19.0598 7.50433 18.878C7.81583 18.6962 8.0053 18.3608 8.0002 18.0001V13.0001H18.0002V18.0001C17.9951 18.3608 18.1846 18.6962 18.4961 18.878C18.8076 19.0598 19.1928 19.0598 19.5043 18.878C19.8158 18.6962 20.0053 18.3608 20.0002 18.0001V12.1681C20.0181 12.0601 20.0181 11.9499 20.0002 11.8419V6.00012C20.0039 5.72982 19.898 5.46954 19.7067 5.27857C19.5154 5.08761 19.2549 4.98223 18.9846 4.98645C18.4331 4.99507 17.9927 5.44859 18.0002 6.00012V11.0001H8.0002V6.00012C8.0039 5.72982 7.89803 5.46954 7.70669 5.27857C7.51536 5.08761 7.25487 4.98223 6.98458 4.98645Z" fill="#1D4ED8"/>
<path fill-rule="evenodd" clip-rule="evenodd" d="M3.98446 6.98645C3.43294 6.99507 2.99253 7.44859 3.00008 8.00012V11.0001H2.00008C1.63945 10.995 1.304 11.1845 1.12219 11.496C0.940388 11.8075 0.940388 12.1928 1.12219 12.5042C1.304 12.8157 1.63945 13.0052 2.00008 13.0001H3.00008V16.0001C2.99498 16.3608 3.18446 16.6962 3.49596 16.878C3.80745 17.0598 4.19271 17.0598 4.50421 16.878C4.81571 16.6962 5.00518 16.3608 5.00008 16.0001V12.1681C5.01793 12.0601 5.01793 11.9499 5.00008 11.8419V8.00012C5.00378 7.72982 4.89791 7.46954 4.70657 7.27857C4.51524 7.08761 4.25475 6.98223 3.98446 6.98645ZM21.9845 6.98645C21.4329 6.99507 20.9925 7.44859 21.0001 8.00012V11.8322C20.9822 11.9401 20.9822 12.0503 21.0001 12.1583V16.0001C20.995 16.3608 21.1845 16.6962 21.496 16.878C21.8075 17.0598 22.1927 17.0598 22.5042 16.878C22.8157 16.6962 23.0052 16.3608 23.0001 16.0001V13.0001H24.0001C24.3607 13.0052 24.6962 12.8157 24.878 12.5042C25.0598 12.1928 25.0598 11.8075 24.878 11.496C24.6962 11.1845 24.3607 10.995 24.0001 11.0001H23.0001V8.00012C23.0038 7.72982 22.8979 7.46954 22.7066 7.27857C22.5152 7.08761 22.2548 6.98223 21.9845 6.98645Z" fill="#1D4ED8"/>
</svg>
