<svg width="26" height="24" viewBox="0 0 26 24" fill="none" xmlns="http://www.w3.org/2000/svg">
<path fill-rule="evenodd" clip-rule="evenodd" d="M6.98433 4.98645C6.43282 4.99507 5.99241 5.44859 5.99996 6.00012V11.8322C5.98211 11.9401 5.98211 12.0503 5.99996 12.1583V18.0001C5.99486 18.3608 6.18433 18.6962 6.49583 18.878C6.80733 19.0598 7.19259 19.0598 7.50409 18.878C7.81558 18.6962 8.00506 18.3608 7.99996 18.0001V13.0001H18V18.0001C17.9949 18.3608 18.1843 18.6962 18.4958 18.878C18.8073 19.0598 19.1926 19.0598 19.5041 18.878C19.8156 18.6962 20.0051 18.3608 20 18.0001V12.1681C20.0178 12.0601 20.0178 11.9499 20 11.8419V6.00012C20.0037 5.72982 19.8978 5.46954 19.7064 5.27857C19.5151 5.08761 19.2546 4.98223 18.9843 4.98645C18.4328 4.99507 17.9924 5.44859 18 6.00012V11.0001H7.99996V6.00012C8.00366 5.72982 7.89778 5.46954 7.70645 5.27857C7.51512 5.08761 7.25463 4.98223 6.98433 4.98645Z" fill="#233876"/>
<path fill-rule="evenodd" clip-rule="evenodd" d="M3.98434 6.98645C3.43282 6.99507 2.99241 7.44859 2.99996 8.00012V11.0001H1.99996C1.63932 10.995 1.30388 11.1845 1.12207 11.496C0.940266 11.8075 0.940266 12.1928 1.12207 12.5042C1.30388 12.8157 1.63932 13.0052 1.99996 13.0001H2.99996V16.0001C2.99486 16.3608 3.18434 16.6962 3.49583 16.878C3.80733 17.0598 4.19259 17.0598 4.50409 16.878C4.81558 16.6962 5.00506 16.3608 4.99996 16.0001V12.1681C5.01781 12.0601 5.01781 11.9499 4.99996 11.8419V8.00012C5.00366 7.72982 4.89778 7.46954 4.70645 7.27857C4.51512 7.08761 4.25463 6.98223 3.98434 6.98645ZM21.9843 6.98645C21.4328 6.99507 20.9924 7.44859 21 8.00012V11.8322C20.9821 11.9401 20.9821 12.0503 21 12.1583V16.0001C20.9949 16.3608 21.1843 16.6962 21.4958 16.878C21.8073 17.0598 22.1926 17.0598 22.5041 16.878C22.8156 16.6962 23.0051 16.3608 23 16.0001V13.0001H24C24.3606 13.0052 24.696 12.8157 24.8778 12.5042C25.0597 12.1928 25.0597 11.8075 24.8778 11.496C24.696 11.1845 24.3606 10.995 24 11.0001H23V8.00012C23.0037 7.72982 22.8978 7.46954 22.7065 7.27857C22.5151 7.08761 22.2546 6.98223 21.9843 6.98645Z" fill="#233876"/>
</svg>
