<svg width="33" height="32" viewBox="0 0 33 32" fill="none" xmlns="http://www.w3.org/2000/svg">
<g clip-path="url(#clip0_3047_11223)">
<rect x="0.5" width="32" height="32" rx="16" fill="#1D4ED8"/>
<g filter="url(#filter0_d_3047_11223)">
<path d="M16.9446 23.6875H25.4446M18.9444 9.6875L9.946 18.6859C9.28735 19.3446 8.76731 20.1441 8.609 21.062C8.44915 21.9888 8.39595 23.139 8.94444 23.6875C9.49294 24.236 10.6431 24.1828 11.5699 24.0229C12.4878 23.8646 13.2873 23.3446 13.946 22.6859L22.9444 13.6875M18.9444 9.6875C18.9444 9.6875 21.9444 6.6875 23.9444 8.6875C25.9444 10.6875 22.9444 13.6875 22.9444 13.6875M18.9444 9.6875L22.9444 13.6875" stroke="white" stroke-width="1.5" stroke-linecap="round" stroke-linejoin="round"/>
</g>
</g>
<defs>
<filter id="filter0_d_3047_11223" x="-10.5" y="-11" width="54" height="54" filterUnits="userSpaceOnUse" color-interpolation-filters="sRGB">
<feFlood flood-opacity="0" result="BackgroundImageFix"/>
<feColorMatrix in="SourceAlpha" type="matrix" values="0 0 0 0 0 0 0 0 0 0 0 0 0 0 0 0 0 0 127 0" result="hardAlpha"/>
<feOffset/>
<feGaussianBlur stdDeviation="7.5"/>
<feComposite in2="hardAlpha" operator="out"/>
<feColorMatrix type="matrix" values="0 0 0 0 0 0 0 0 0 0 0 0 0 0 0 0 0 0 0.08 0"/>
<feBlend mode="normal" in2="BackgroundImageFix" result="effect1_dropShadow_3047_11223"/>
<feBlend mode="normal" in="SourceGraphic" in2="effect1_dropShadow_3047_11223" result="shape"/>
</filter>
<clipPath id="clip0_3047_11223">
<rect x="0.5" width="32" height="32" rx="16" fill="white"/>
</clipPath>
</defs>
</svg>
