<svg width="25" height="24" viewBox="0 0 25 24" fill="none" xmlns="http://www.w3.org/2000/svg">
<path d="M10.4331 10.4608C10.5227 10.1025 10.8025 9.82273 11.1607 9.73315L14.6186 8.86869C15.351 8.68559 16.0144 9.34899 15.8313 10.0814L14.9668 13.5392C14.8772 13.8975 14.5975 14.1773 14.2392 14.2668L10.7813 15.1313C10.049 15.3144 9.38558 14.651 9.56867 13.9186L10.4331 10.4608Z" stroke="#233876" stroke-width="1.5" stroke-linecap="round" stroke-linejoin="round"/>
<path d="M12.7 3.5C6.19995 3.5 4.19995 5.5 4.19995 12C4.19995 18.5 6.19995 20.5 12.7 20.5C19.2 20.5 21.2 18.5 21.2 12C21.2 5.5 19.2 3.5 12.7 3.5Z" stroke="#233876" stroke-width="1.5" stroke-linecap="round" stroke-linejoin="round"/>
</svg>
