<svg width="16" height="17" viewBox="0 0 16 17" fill="none" xmlns="http://www.w3.org/2000/svg">
<path d="M8.03396 1.8335L7.12062 3.70016C6.46799 5.03373 5.5933 6.24658 4.53396 7.28683L4.41396 7.40016C3.7336 8.06067 3.34486 8.96532 3.33396 9.9135V10.0335C3.31594 11.8902 4.42236 13.5736 6.13396 14.2935L6.30729 14.3668C7.42987 14.8436 8.69805 14.8436 9.82062 14.3668H9.86062C11.585 13.6176 12.6914 11.9068 12.6673 10.0268V7.1335C12.0926 8.44585 11.049 9.49659 9.74062 10.0802C9.74062 10.0802 9.74062 10.0802 9.70062 10.0802C9.66062 10.0802 9.19396 10.2735 8.99396 10.0802C8.81532 9.89942 8.79822 9.6143 8.95396 9.4135L9.00062 9.38016H9.03396C10.5645 8.21682 10.9213 6.06131 9.84729 4.46683C8.98062 3.14683 8.03396 1.8335 8.03396 1.8335Z" fill="#233876"/>
</svg>
