<svg width="32" height="33" viewBox="0 0 32 33" fill="none" xmlns="http://www.w3.org/2000/svg">
<path fill-rule="evenodd" clip-rule="evenodd" d="M12.8693 10.6252C12.6546 10.8838 12.4653 11.1158 12.304 11.3212C11.9746 11.7412 11.664 12.1518 11.3706 12.5505C9.08398 15.6772 7.99998 18.1052 7.99998 19.6745C7.99998 23.7812 11.5533 27.1665 16 27.1665C20.4466 27.1665 24 23.7825 24 19.6745C24 17.1572 21.3733 12.8345 16.0373 7.0705C14.448 8.81317 13.3866 10.0038 12.8693 10.6252ZM16 29.8332C10.1093 29.8332 5.33331 25.2852 5.33331 19.6745C5.33331 17.4172 6.62798 14.5185 9.21865 10.9772C9.72902 10.2723 10.2636 9.5852 10.8213 8.91717C11.564 8.0265 13.2906 6.10917 16 3.1665C23.1106 10.4318 26.6666 15.9345 26.6666 19.6745C26.6666 25.2852 21.8906 29.8332 16 29.8332ZM16 25.8332C13.0533 25.8332 10.6666 23.5585 10.6666 20.7532C10.6666 18.8838 12.444 16.1318 16 12.4998C19.556 16.1318 21.3333 18.8838 21.3333 20.7532C21.3333 23.5585 18.9466 25.8332 16 25.8332ZM13.3333 20.7532C13.3333 22.0558 14.4986 23.1665 16 23.1665C17.5013 23.1665 18.6666 22.0558 18.6666 20.7532C18.6666 20.0372 17.7946 18.5198 16 16.4332C14.2053 18.5198 13.3333 20.0372 13.3333 20.7532Z" fill="#1D4ED8"/>
</svg>
