<svg width="21" height="21" viewBox="0 0 21 21" fill="none" xmlns="http://www.w3.org/2000/svg">
<path d="M10.6243 2.62012L9.48263 4.95345C8.66684 6.62041 7.57347 8.13647 6.24929 9.43678L6.09929 9.57845C5.24885 10.4041 4.76293 11.5349 4.74929 12.7201V12.8701C4.72677 15.1911 6.1098 17.2952 8.24929 18.1951L8.46596 18.2868C9.86918 18.8828 11.4544 18.8828 12.8576 18.2868H12.9076C15.0631 17.3503 16.4461 15.2117 16.416 12.8618V9.24512C15.6976 10.8856 14.3931 12.199 12.7576 12.9285C12.7576 12.9285 12.7576 12.9285 12.7076 12.9285C12.6576 12.9285 12.0743 13.1701 11.8243 12.9285C11.601 12.7025 11.5796 12.3461 11.7743 12.0951L11.8326 12.0535H11.8743C13.7874 10.5993 14.2334 7.90489 12.891 5.91178C11.8076 4.26178 10.6243 2.62012 10.6243 2.62012Z" fill="#FF5A1F"/>
</svg>
