<svg width="16" height="17" viewBox="0 0 16 17" fill="none" xmlns="http://www.w3.org/2000/svg">
<path d="M8.0342 1.8335L7.12087 3.70016C6.46823 5.03373 5.59354 6.24658 4.5342 7.28683L4.4142 7.40016C3.73384 8.06067 3.34511 8.96532 3.3342 9.9135V10.0335C3.31618 11.8902 4.4226 13.5736 6.1342 14.2935L6.30753 14.3668C7.43011 14.8436 8.69829 14.8436 9.82087 14.3668H9.86087C11.5853 13.6176 12.6917 11.9068 12.6675 10.0268V7.1335C12.0929 8.44585 11.0493 9.49659 9.74087 10.0802C9.74087 10.0802 9.74087 10.0802 9.70087 10.0802C9.66087 10.0802 9.1942 10.2735 8.9942 10.0802C8.81557 9.89942 8.79846 9.6143 8.9542 9.4135L9.00087 9.38016H9.0342C10.5647 8.21682 10.9215 6.06131 9.84754 4.46683C8.98087 3.14683 8.0342 1.8335 8.0342 1.8335Z" fill="#233876"/>
</svg>
