<svg width="25" height="25" viewBox="0 0 25 25" fill="none" xmlns="http://www.w3.org/2000/svg">
<path d="M15.0423 14.76H15.0601H15.099C17.0317 13.9011 18.573 12.3493 19.4184 10.41L19.6101 10.45L19.6101 14.8097L19.6101 14.81M15.0423 14.76L15.3001 21.25C17.8632 20.1362 19.5181 17.6046 19.5101 14.81H19.6101M15.0423 14.76L15.0256 14.7662C14.8267 14.8394 14.6177 14.8812 14.4059 14.8901L14.4059 14.89L14.4014 14.8904C14.2807 14.9009 14.1607 14.8634 14.0676 14.7861C13.8454 14.5638 13.8153 14.2161 13.9905 13.96H14.0601H14.0938L14.1206 13.9397C16.4571 12.1663 17.0024 8.87704 15.3633 6.4445C14.7028 5.44376 14.0175 4.44326 13.4973 3.69302C13.2372 3.31782 13.0183 3.00514 12.8644 2.78625C12.7875 2.6768 12.7268 2.59079 12.6854 2.53213L12.638 2.46514L12.6258 2.44795L12.6227 2.44359L12.6219 2.44248L12.6217 2.4422L12.6217 2.44213L12.5401 2.5M15.0423 14.76L12.5401 2.5M19.6101 14.81C19.6181 17.6444 17.9395 20.212 15.34 21.3417L15.3209 21.35H15.3001H15.2503M19.6101 14.81L15.2503 21.35M12.5401 2.5L12.6217 2.44211L12.5242 2.30491L12.4503 2.45605L11.0803 5.25605L11.0802 5.25616C10.109 7.24747 8.80359 9.05759 7.22081 10.6079L12.5401 2.5ZM15.2503 21.35C14.3958 21.7089 13.4768 21.8892 12.5498 21.88C12.5496 21.88 12.5494 21.88 12.5491 21.88L15.2503 21.35ZM12.7601 12.93C12.8474 12.821 12.9482 12.7235 13.0601 12.64L12.7601 12.93ZM12.7601 12.93C12.0456 13.8293 12.1231 15.1226 12.9401 15.93C13.3314 16.3133 13.8627 16.5193 14.4101 16.5L12.7601 12.93ZM14.6201 19.76H14.5998L14.581 19.768C13.3023 20.3109 11.8579 20.3109 10.5792 19.768L10.5791 19.7679L10.3191 19.6579L10.3188 19.6578C8.34671 18.8305 7.07353 16.8897 7.10012 14.7512H7.10013V14.75V14.5608C7.11713 13.5674 7.52258 12.6201 8.2296 11.9219L8.40879 11.7527L8.4088 11.7527L8.4098 11.7517C10.1261 10.0846 11.5463 8.13779 12.6097 5.99445L12.6103 5.99333L12.7862 5.62745C13.1573 6.16029 13.5519 6.74757 13.9471 7.33577L13.9474 7.33623C15.0941 9.02244 14.7178 11.3093 13.0967 12.54H13.0601H13.0269L13.0003 12.5598C12.8816 12.6484 12.7746 12.7518 12.682 12.8675L12.6818 12.8678C11.9355 13.8071 12.0165 15.1578 12.8698 16.0011L12.8702 16.0014C13.2807 16.4036 13.8382 16.6199 14.4125 16.6C14.828 16.5942 15.239 16.514 15.6262 16.3633C15.6263 16.3632 15.6263 16.3632 15.6264 16.3632L15.756 16.3133L15.756 16.3133L15.7572 16.3129C16.5321 16.0037 17.2532 15.5748 17.8942 15.0422C17.7972 17.0962 16.545 18.9278 14.65 19.7584L14.6464 19.76H14.6201Z" fill="#1D4ED8" stroke="#1D4ED8" stroke-width="0.2"/>
</svg>
