<svg width="33" height="32" viewBox="0 0 33 32" fill="none" xmlns="http://www.w3.org/2000/svg">
<path d="M13.5895 17.5193C13.9375 17.5193 14.2712 17.381 14.5173 17.135C14.7633 16.8889 14.9016 16.5552 14.9016 16.2073V15.0852C14.9016 13.5006 14.7866 10.9988 14.7436 10.1183C14.7393 10.032 14.702 9.95071 14.6393 9.89124C14.5767 9.83176 14.4935 9.79872 14.4071 9.79897H14.3907C14.3464 9.79897 14.3026 9.80769 14.2617 9.82463C14.2209 9.84156 14.1837 9.86638 14.1524 9.89767C14.1211 9.92896 14.0963 9.96611 14.0794 10.007C14.0625 10.0479 14.0538 10.0917 14.0538 10.1359V14.7303C14.0556 14.8123 14.0285 14.8923 13.9772 14.9564C13.926 15.0204 13.8538 15.0644 13.7734 15.0806C13.725 15.0888 13.6755 15.0864 13.6282 15.0734C13.5808 15.0605 13.5369 15.0374 13.4995 15.0058C13.462 14.9742 13.4319 14.9347 13.4112 14.8902C13.3906 14.8458 13.3799 14.7973 13.3798 14.7483V10.1539C13.3817 10.0719 13.3546 9.99187 13.3033 9.92781C13.252 9.86376 13.1799 9.81978 13.0994 9.80357C13.0511 9.79537 13.0015 9.79783 12.9542 9.81075C12.9069 9.82368 12.863 9.84677 12.8256 9.87841C12.7881 9.91005 12.758 9.94948 12.7373 9.99396C12.7167 10.0384 12.7059 10.0869 12.7059 10.1359V14.7302C12.7078 14.8123 12.6807 14.8923 12.6294 14.9564C12.5781 15.0204 12.506 15.0644 12.4255 15.0806C12.3772 15.0888 12.3276 15.0863 12.2803 15.0734C12.233 15.0605 12.1891 15.0374 12.1517 15.0058C12.1142 14.9741 12.0841 14.9347 12.0634 14.8902C12.0428 14.8458 12.032 14.7973 12.032 14.7483V10.1539C12.0338 10.0719 12.0067 9.99187 11.9555 9.92781C11.9042 9.86376 11.8321 9.81978 11.7516 9.80357C11.7033 9.79537 11.6537 9.79783 11.6064 9.81075C11.5591 9.82368 11.5152 9.84676 11.4777 9.87841C11.4403 9.91005 11.4102 9.94948 11.3895 9.99395C11.3688 10.0384 11.3581 10.0869 11.3581 10.1359V14.7302C11.3599 14.8123 11.3329 14.8923 11.2816 14.9564C11.2303 15.0204 11.1582 15.0644 11.0778 15.0806C11.0294 15.0888 10.9799 15.0863 10.9326 15.0734C10.8853 15.0605 10.8413 15.0374 10.8039 15.0058C10.7664 14.9741 10.7363 14.9347 10.7156 14.8902C10.695 14.8458 10.6843 14.7973 10.6842 14.7483V10.1359C10.6842 10.0465 10.6487 9.96084 10.5856 9.89765C10.5224 9.83445 10.4367 9.79895 10.3473 9.79895H10.3308C10.2444 9.7987 10.1613 9.83174 10.0986 9.89122C10.0359 9.95069 9.99858 10.032 9.99432 10.1183C9.95135 10.9988 9.83643 13.5006 9.83643 15.0852V16.2072C9.83642 16.3795 9.87035 16.5501 9.93628 16.7093C10.0022 16.8685 10.0989 17.0131 10.2207 17.135C10.3425 17.2568 10.4871 17.3534 10.6463 17.4194C10.8055 17.4853 10.9761 17.5192 11.1484 17.5192C11.2566 17.5196 11.3613 17.5575 11.4445 17.6266C11.5278 17.6957 11.5844 17.7916 11.6047 17.8979C11.9113 19.4659 11.8328 21.4454 11.0446 28.7591C10.9211 29.9052 11.5959 30.4 12.369 30.4C13.1421 30.4 13.8168 29.9052 13.6933 28.7592C12.9052 21.4454 12.8266 19.4659 13.1333 17.8979C13.1535 17.7916 13.2101 17.6957 13.2934 17.6266C13.3766 17.5575 13.4814 17.5196 13.5895 17.5193Z" fill="#233876"/>
<path d="M16.4374 25.9501C15.8239 25.9493 15.2117 25.8956 14.6074 25.7896C14.6918 26.6318 14.79 27.5719 14.9039 28.6288C14.9145 28.7264 14.9165 28.817 14.9194 28.9082C15.4235 28.9646 15.9302 28.9932 16.4374 28.9939C16.8217 28.9939 17.2013 28.974 17.5776 28.943C17.5106 27.9188 17.5482 26.8905 17.6898 25.874C17.2742 25.9238 16.856 25.9493 16.4374 25.9501Z" fill="#233876"/>
<path d="M16.4372 1.6001C13.3847 1.60028 10.4198 2.62001 8.01307 4.49742C5.6063 6.37484 3.89556 9.00236 3.15241 11.9629C2.40926 14.9235 2.67627 18.0475 3.91106 20.839C5.14585 23.6305 7.27767 25.9296 9.96814 27.3713C10.1061 26.0583 10.2165 24.947 10.3026 23.9984C8.44759 22.6909 7.05868 20.8251 6.33837 18.6729C5.61805 16.5207 5.604 14.1948 6.29825 12.034C6.99251 9.87332 8.35878 7.99084 10.1979 6.66103C12.037 5.33122 14.2528 4.6236 16.5222 4.64134C18.7917 4.65908 20.9961 5.40124 22.8142 6.75963C24.6323 8.11803 25.969 10.0216 26.6294 12.1929C27.2898 14.3642 27.2394 16.6897 26.4855 18.8304C25.7316 20.971 24.3137 22.8149 22.4385 24.0933C22.443 24.1336 22.4476 24.1754 22.4522 24.2155C22.5926 25.4667 22.7137 26.5576 22.7631 27.4447C25.4827 26.0286 27.6485 23.741 28.9137 20.948C30.1789 18.1551 30.4703 15.0184 29.7414 12.0401C29.0124 9.06189 27.3051 6.41439 24.893 4.52153C22.4809 2.62868 19.5033 1.59996 16.4372 1.6001Z" fill="#233876"/>
<path d="M23.0379 13.3641C23.0379 11.3953 21.7499 9.79933 20.161 9.79932C18.5722 9.7993 17.2842 11.3953 17.2842 13.3641C17.2842 14.8431 18.0571 15.722 18.7077 16.4368C19.134 16.9052 19.5829 17.444 19.574 18.182C19.526 22.1771 18.552 27.2232 18.7868 28.8179C18.9253 29.7586 19.3746 30.4003 20.161 30.4003C20.9475 30.4003 21.3967 29.7586 21.5353 28.8179C21.7701 27.2232 20.7961 22.1771 20.7481 18.1819C20.7392 17.444 21.1881 16.9052 21.6144 16.4368C22.265 15.722 23.0379 14.843 23.0379 13.3641Z" fill="#233876"/>
</svg>
