<svg width="16" height="17" viewBox="0 0 16 17" fill="none" xmlns="http://www.w3.org/2000/svg">
<path d="M10.8987 5.98504C10.6481 5.74365 10.3636 5.56325 10.0433 5.44816C8.95472 5.05611 7.78963 5.53954 7.37898 5.76757C7.30287 5.72274 7.22504 5.68201 7.14356 5.64839C6.03738 5.19233 4.78501 5.88202 4.08841 6.37752C3.94027 6.34864 3.78246 6.33355 3.61476 6.33355C2.46408 6.33355 1.12012 7.01312 1.12012 8.92745C1.12012 9.87492 1.3865 10.6004 1.91153 11.0827C2.51912 11.6412 3.28882 11.6998 3.58079 11.6998C3.65239 11.6998 3.69539 11.6961 3.70012 11.6955H12.3113C12.7125 11.6955 13.6821 11.6192 14.3003 10.9377C14.6741 10.5254 14.8801 9.89626 14.8801 9.16583C14.8801 7.43426 13.1021 6.02341 10.8987 5.98504ZM13.9818 10.6485C13.4654 11.2181 12.5826 11.2649 12.3089 11.2649H12.3001L3.68141 11.2657C3.6726 11.2666 2.82077 11.3332 2.20221 10.7655C1.76963 10.3676 1.55012 9.74948 1.55012 8.92745C1.55012 7.33275 2.61673 6.7644 3.61498 6.7644C4.68482 6.7644 5.22726 7.47629 5.22726 8.87982C5.22726 8.99901 5.32358 9.09535 5.44226 9.09535C5.56094 9.09535 5.65726 8.99901 5.65726 8.87982C5.65726 7.70842 5.28639 6.91505 4.59688 6.5549C5.19243 6.1788 6.16982 5.7124 6.98016 6.04668C7.69912 6.34304 8.18029 7.22003 8.40948 8.65222C8.42668 8.75826 8.51805 8.83369 8.62147 8.83369C8.63286 8.83369 8.64404 8.83283 8.65565 8.83089C8.77304 8.81193 8.85281 8.70114 8.83389 8.5839C8.64555 7.40818 8.28521 6.56288 7.76039 6.05681C8.19706 5.85616 9.09619 5.55894 9.90867 5.85702C10.684 6.14173 11.2268 6.9032 11.5214 8.12137C11.5448 8.22008 11.6332 8.28625 11.7302 8.28625C11.7469 8.28625 11.7639 8.28431 11.7809 8.28022C11.8963 8.2522 11.9671 8.1356 11.9391 8.02007C11.7845 7.38146 11.5633 6.85406 11.2787 6.43744C13.0653 6.61396 14.4501 7.76855 14.4501 9.16583C14.4501 9.77965 14.2794 10.32 13.9818 10.6485Z" fill="#233876" stroke="#233876"/>
</svg>
