<svg width="311" height="120" viewBox="0 0 311 120" fill="none" xmlns="http://www.w3.org/2000/svg">
<rect x="0.5" y="0.5" width="310" height="119" rx="7.5" fill="#F9FAFB"/>
<rect x="0.5" y="0.5" width="310" height="119" rx="7.5" stroke="#E5E7EB"/>
<path opacity="0.4" d="M166.11 83.3334H145.888C137.979 83.3334 132.667 77.7868 132.667 69.5301V50.4724C132.667 42.2157 137.979 36.6667 145.888 36.6667H166.112C174.021 36.6667 179.333 42.2157 179.333 50.4724V69.5301C179.333 77.7868 174.021 83.3334 166.11 83.3334Z" fill="#1D4ED8"/>
<path fill-rule="evenodd" clip-rule="evenodd" d="M154.238 52.2418C154.238 55.4385 151.637 58.0402 148.44 58.0402C145.241 58.0402 142.642 55.4385 142.642 52.2418C142.642 49.0452 145.241 46.4412 148.44 46.4412C151.637 46.4412 154.238 49.0452 154.238 52.2418ZM173.268 64.8712C173.811 65.3986 174.201 66.0006 174.458 66.6422C175.235 68.5836 174.831 70.9169 174 72.8396C173.016 75.1286 171.13 76.8576 168.755 77.6136C167.7 77.9519 166.594 78.0966 165.491 78.0966H145.935C143.989 78.0966 142.267 77.6439 140.855 76.7946C139.971 76.2626 139.815 75.0376 140.47 74.2396C141.567 72.9096 142.65 71.5749 143.742 70.2286C145.823 67.6526 147.225 66.9059 148.784 67.5616C149.416 67.8322 150.051 68.2406 150.704 68.6699C152.445 69.8226 154.865 71.4046 158.052 69.6872C160.231 68.4959 161.495 66.4574 162.596 64.683L162.618 64.6472C162.692 64.5285 162.766 64.4098 162.839 64.2915C163.213 63.6866 163.582 63.0909 164 62.5426C164.518 61.8636 166.44 59.7402 168.925 61.2522C170.51 62.2042 171.842 63.4922 173.268 64.8712Z" fill="#1D4ED8"/>
</svg>
