<svg width="24" height="24" viewBox="0 0 24 24" fill="none" xmlns="http://www.w3.org/2000/svg">
<path d="M18.5 9.88507C18.5 9.88507 19 11.6112 19 14.5001C19 17.389 18.6111 19.9167 18.2222 20.2778C17.8333 20.639 15.1111 21.0001 12 21.0001C8.88889 21.0001 6.16667 20.639 5.77778 20.2778C5.38889 19.9167 5 17.389 5 14.5001C5 11.6112 5.5 9.88507 5.5 9.88507M18.5 9.88507C18.8074 9.86836 19.0179 9.85087 19.1111 9.83339C19.5556 9.75006 20 9.16673 20 8.50006C20 7.83339 19.5556 7.25006 19.1111 7.16673C18.6667 7.08339 15.5556 7.00006 12 7.00006C8.44444 7.00006 5.33333 7.08339 4.88889 7.16673C4.44444 7.25006 4 7.83339 4 8.50006C4 9.16673 4.44444 9.75006 4.88889 9.83339C4.98211 9.85087 5.19265 9.86836 5.5 9.88507M18.5 9.88507C17.342 9.94803 14.8098 10.0001 12 10.0001C9.19021 10.0001 6.65798 9.94803 5.5 9.88507M11.8659 6.85003C12.415 4.80112 15.562 1.25191 17.0621 3.85003C18.5622 6.44827 13.915 7.3992 11.8659 6.85003ZM12.0623 6.85003C11.5132 4.80112 8.36619 1.25191 6.86617 3.85003C5.36607 6.44827 10.0132 7.3992 12.0623 6.85003Z" stroke="#233876" stroke-width="1.5" stroke-linecap="round" stroke-linejoin="round"/>
</svg>
