<svg width="24" height="25" viewBox="0 0 24 25" fill="none" xmlns="http://www.w3.org/2000/svg">
<g clip-path="url(#clip0_1982_4877)">
<path d="M23.9873 12.5097C23.9873 11.5035 23.9057 10.7693 23.729 10.0078H12.239V14.5493H18.9833C18.8474 15.678 18.1132 17.3777 16.4814 18.5198L16.4585 18.6719L20.0915 21.4862L20.3431 21.5113C22.6547 19.3765 23.9873 16.2355 23.9873 12.5097Z" fill="#4285F4"/>
<path d="M12.2391 24.4756C15.5433 24.4756 18.3171 23.3878 20.3432 21.5114L16.4815 18.5198C15.4481 19.2405 14.0611 19.7436 12.2391 19.7436C9.00291 19.7436 6.25622 17.6089 5.27711 14.6582L5.13359 14.6704L1.35604 17.5939L1.30664 17.7312C3.31906 21.7288 7.45273 24.4756 12.2391 24.4756Z" fill="#34A853"/>
<path d="M5.27702 14.6579C5.01867 13.8965 4.86916 13.0806 4.86916 12.2376C4.86916 11.3945 5.01867 10.5786 5.26343 9.81719L5.25658 9.65501L1.4317 6.68457L1.30655 6.7441C0.47714 8.40302 0.0012207 10.2659 0.0012207 12.2376C0.0012207 14.2092 0.47714 16.072 1.30655 17.7309L5.27702 14.6579Z" fill="#FBBC05"/>
<path d="M12.2391 4.73192C14.5371 4.73192 16.0871 5.72453 16.971 6.55404L20.4248 3.18183C18.3036 1.21019 15.5433 0 12.2391 0C7.45273 0 3.31906 2.74669 1.30664 6.74434L5.26351 9.81743C6.25622 6.86676 9.00291 4.73192 12.2391 4.73192Z" fill="#EB4335"/>
</g>
<defs>
<clipPath id="clip0_1982_4877">
<rect width="24" height="24.56" fill="white"/>
</clipPath>
</defs>
</svg>
