<svg width="40" height="40" viewBox="0 0 40 40" fill="none" xmlns="http://www.w3.org/2000/svg">
<rect width="40" height="40" rx="8" fill="#F3FAF7"/>
<path d="M16.0563 14.5394C13.1536 15.6588 11.5737 18.8601 12.1003 21.8152C12.627 24.4569 13.8685 26.9998 15.7869 28.5314C17.1073 29.5857 18.2213 28.5314 20 28.5314C21.7787 28.5314 22.8927 29.5857 24.2132 28.5314C26.1315 26.9998 27.373 24.4569 27.8997 21.8152C28.4263 18.8601 26.8464 15.6588 23.9437 14.5394C22.1066 13.9797 21.4363 15.0991 20 15.0991M16.0563 14.5394C17.8934 13.9797 18.5637 15.0991 20 15.0991M16.0563 14.5394L24 16C25.3333 16.6667 27.1 18.1 23.5 18.5C19.9 18.9 21.6667 24.6667 23 27.5L26 25.5L26.5 21.5V20V18C25.5904 18.3949 23.7169 19.4478 23.5 20.5C23.2831 21.5522 23.0763 23.6051 23 24.5L24.5 25L25 21.5L26 20H25L23.5 21.8152L24 23.5L25.5 24.5V22.5L23 28V25.5C22.3333 24.5 21.2 22.2 22 21C22.8 19.8 22.6667 19.5 22.5 19.5V22L23.5 17L24.2132 17.3173L20 16.5L18 16L25 17.5L15.5 16V15.5H16.5L20 18.5L22.5 18L20 17.5L14.5 17V16.5L13.5 18L18 18.5L20.5 19.5L21 19L20 21.8152L21.5 27.5L22 28H17L16.0563 27.5L15 26.5L14 24L13.5 23L13 21.5V20L13.5 19L15 19.5H17L18.5 20L19 20.5L18.5 21.5L19.5 20.5L19 22.5L19.5 24.5L20 26.5L20.5 27H17.5L16 26L15.7869 24.5L15 23L14.5 21.5V20.5L14 20L16.5 20.5L18 21L18.5 22L18 24L18.5 26L17 25.5V24.5L16.5 23L16 22L15.5 21.5L16.5 21L17.5 22V23M20 15.0991C19.8643 13.2056 20 12.5 19 10.5" stroke="#31C48D" stroke-width="1.5" stroke-linecap="round"/>
</svg>
