<svg width="25" height="24" viewBox="0 0 25 24" fill="none" xmlns="http://www.w3.org/2000/svg">
<path d="M6.84985 3C3.98221 3 3.09985 3.88235 3.09985 6.75C3.09985 9.61765 3.98221 10.5 6.84985 10.5C9.7175 10.5 10.5999 9.61765 10.5999 6.75C10.5999 3.88235 9.7175 3 6.84985 3Z" stroke="#233876" stroke-width="1.5" stroke-linecap="round" stroke-linejoin="round"/>
<path d="M6.84985 13.5C3.98221 13.5 3.09985 14.3824 3.09985 17.25C3.09985 20.1176 3.98221 21 6.84985 21C9.7175 21 10.5999 20.1176 10.5999 17.25C10.5999 14.3824 9.7175 13.5 6.84985 13.5Z" stroke="#233876" stroke-width="1.5" stroke-linecap="round" stroke-linejoin="round"/>
<path d="M17.3499 13.5C14.4822 13.5 13.5999 14.3824 13.5999 17.25C13.5999 20.1176 14.4822 21 17.3499 21C20.2175 21 21.0999 20.1176 21.0999 17.25C21.0999 14.3824 20.2175 13.5 17.3499 13.5Z" stroke="#233876" stroke-width="1.5" stroke-linecap="round" stroke-linejoin="round"/>
<path d="M17.3499 3C14.4822 3 13.5999 3.88235 13.5999 6.75C13.5999 9.61765 14.4822 10.5 17.3499 10.5C20.2175 10.5 21.0999 9.61765 21.0999 6.75C21.0999 3.88235 20.2175 3 17.3499 3Z" stroke="#233876" stroke-width="1.5" stroke-linecap="round" stroke-linejoin="round"/>
</svg>
