<svg width="16" height="16" viewBox="0 0 16 16" fill="none" xmlns="http://www.w3.org/2000/svg">
<path fill-rule="evenodd" clip-rule="evenodd" d="M3.50001 2H5.56001C5.959 2 6.34154 2.15895 6.62304 2.44169C6.90454 2.72444 7.06179 3.10769 7.06001 3.50667V5.56C7.06001 6.38843 6.38844 7.06 5.56001 7.06H3.50001C2.67159 7.06 2.00001 6.38843 2.00001 5.56V3.50667C1.99824 3.10769 2.15549 2.72444 2.43699 2.44169C2.71849 2.15895 3.10103 2 3.50001 2ZM5.56001 6.05333C5.83466 6.04974 6.05642 5.82797 6.06001 5.55333V3.50667C6.06001 3.23052 5.83616 3.00667 5.56001 3.00667H3.50001C3.22387 3.00667 3.00001 3.23052 3.00001 3.50667V5.55333C3.00361 5.82797 3.22537 6.04974 3.50001 6.05333H5.56001Z" fill="#6B7280"/>
<path fill-rule="evenodd" clip-rule="evenodd" d="M10.44 2H12.5C12.899 2 13.2816 2.15895 13.5631 2.44169C13.8446 2.72444 14.0018 3.10769 14 3.50667V5.56C14 6.38843 13.3285 7.06 12.5 7.06H10.44C9.6116 7.06 8.94003 6.38843 8.94003 5.56V3.5C8.94003 2.67157 9.6116 2 10.44 2ZM12.5 6.05333C12.7747 6.04974 12.9964 5.82797 13 5.55333V3.50667C13 3.23052 12.7762 3.00667 12.5 3.00667H10.44C10.1639 3.00667 9.94003 3.23052 9.94003 3.50667V5.55333C9.94362 5.82797 10.1654 6.04974 10.44 6.05333H12.5Z" fill="#6B7280"/>
<path fill-rule="evenodd" clip-rule="evenodd" d="M3.50001 8.94H5.56001C6.38844 8.94 7.06001 9.61157 7.06001 10.44V12.5C7.06001 13.3284 6.38844 14 5.56001 14H3.50001C3.10103 14 2.71849 13.8411 2.43699 13.5583C2.15549 13.2756 1.99824 12.8923 2.00001 12.4933V10.44C2.00001 9.61157 2.67159 8.94 3.50001 8.94ZM5.56001 12.9933C5.83616 12.9933 6.06001 12.7695 6.06001 12.4933V10.44C6.05642 10.1654 5.83466 9.94359 5.56001 9.94H3.50001C3.22537 9.94359 3.00361 10.1654 3.00001 10.44V12.4933C3.00001 12.7695 3.22387 12.9933 3.50001 12.9933H5.56001Z" fill="#6B7280"/>
<path fill-rule="evenodd" clip-rule="evenodd" d="M10.44 8.94H12.5C13.3284 8.94 14 9.61157 14 10.44V12.4933C14.0018 12.8923 13.8445 13.2756 13.563 13.5583C13.2815 13.8411 12.899 14 12.5 14H10.44C10.041 14 9.65849 13.8411 9.37699 13.5583C9.09549 13.2756 8.93824 12.8923 8.94002 12.4933V10.44C8.94002 9.61157 9.61159 8.94 10.44 8.94ZM12.5 12.9933C12.7762 12.9933 13 12.7695 13 12.4933V10.44C12.9964 10.1654 12.7747 9.94359 12.5 9.94H10.44C10.1654 9.94359 9.94361 10.1654 9.94002 10.44V12.4933C9.94002 12.7695 10.1639 12.9933 10.44 12.9933H12.5Z" fill="#6B7280"/>
</svg>
