<svg width="24" height="24" viewBox="0 0 24 24" fill="none" xmlns="http://www.w3.org/2000/svg">
<path d="M5.5928 11.0575L8.70515 7.17947C8.73499 7.1397 8.77476 7.09992 8.80956 7.06512V7.02535L9.0681 6.87619L9.08798 6.88614C9.25205 6.81156 9.4559 6.79167 9.64483 6.8215C9.6846 6.82647 9.72438 6.83642 9.76415 6.85133C9.96799 6.91597 10.147 7.04026 10.2713 7.21428L10.3558 7.27891V7.34851L14.8205 14.6074L17.371 11.4304C17.5599 11.1967 17.8334 11.0674 18.1317 11.0674H23.2477C24.2023 8.70582 23.7896 5.852 21.9948 3.92791C20.8413 2.68993 19.3001 2.00879 17.6544 2.00879C16.0038 2.00879 14.4625 2.68993 13.324 3.91796L12.1009 5.20069L10.8878 3.92791C9.73432 2.68993 8.19306 2.00879 6.54739 2.00879C4.89675 2.00879 3.35549 2.68993 2.207 3.92791C0.417145 5.85697 -0.000487357 8.70582 0.9541 11.0674H5.5928V11.0575Z" fill="#F05252"/>
<path d="M15.2429 17.1083L15.1485 17.163C15.0142 17.2326 14.8651 17.2674 14.711 17.2674C14.6513 17.2674 14.5867 17.2624 14.527 17.2525L14.4375 17.2326C14.2088 17.163 14.0099 17.0188 13.8856 16.8199L9.36626 9.47656L6.81572 12.6535C6.6268 12.8872 6.35335 13.0165 6.05504 13.0165H2.16211C2.17205 13.0314 2.182 13.0414 2.19691 13.0563L9.70435 21.046C10.3209 21.7022 11.1909 22.0801 12.0908 22.0801C12.9907 22.0801 13.8608 21.7022 14.4773 21.046L21.9897 13.0513C21.9996 13.0414 22.0096 13.0264 22.0195 13.0165H18.5939L15.4766 16.8945C15.4219 16.9691 15.3374 17.0486 15.2429 17.1083Z" fill="#F05252"/>
</svg>
