<svg width="25" height="24" viewBox="0 0 25 24" fill="none" xmlns="http://www.w3.org/2000/svg">
<path d="M7.39999 6.99991C8.86134 5.53856 10.4935 4.4189 11.5975 3.74078C12.4021 3.24656 13.3979 3.24656 14.2025 3.74078C15.3064 4.4189 16.9386 5.53856 18.4 6.99991C21.5684 10.1683 21.4 11.9999 21.4 14.9999C21.4 16.4097 21.2896 17.5987 21.1725 18.4631C21.0493 19.3725 20.2562 19.9999 19.3384 19.9999H17.9C16.7954 19.9999 15.9 19.1045 15.9 17.9999V15.9999C15.9 15.2043 15.5839 14.4412 15.0213 13.8786C14.4587 13.316 13.6956 12.9999 12.9 12.9999C12.1043 12.9999 11.3413 13.316 10.7787 13.8786C10.2161 14.4412 9.89999 15.2043 9.89999 15.9999V17.9999C9.89999 19.1045 9.00456 19.9999 7.89999 19.9999H6.46154C5.54381 19.9999 4.75064 19.3725 4.62747 18.4631C4.51041 17.5987 4.39999 16.4097 4.39999 14.9999C4.39999 11.9999 4.23159 10.1683 7.39999 6.99991Z" stroke="#233876" stroke-width="1.5" stroke-linecap="round" stroke-linejoin="round"/>
</svg>
