<svg width="24" height="24" viewBox="0 0 24 24" fill="none" xmlns="http://www.w3.org/2000/svg">
<path d="M13.49 5.47998C14.59 5.47998 15.49 4.57998 15.49 3.47998C15.49 2.37998 14.59 1.47998 13.49 1.47998C12.39 1.47998 11.49 2.37998 11.49 3.47998C11.49 4.57998 12.39 5.47998 13.49 5.47998ZM10.32 17.48L10.89 14.98L12.99 16.98V21.98C12.99 22.53 13.44 22.98 13.99 22.98C14.54 22.98 14.99 22.53 14.99 21.98V16.34C14.99 15.79 14.77 15.27 14.37 14.89L12.89 13.48L13.49 10.48C14.617 11.7683 16.1597 12.621 17.85 12.89C18.45 12.98 18.99 12.5 18.99 11.89C18.99 11.4 18.63 10.99 18.14 10.91C16.62 10.66 15.36 9.75998 14.69 8.57998L13.69 6.97998C13.29 6.37998 12.69 5.97998 11.99 5.97998C11.69 5.97998 11.49 6.07998 11.19 6.07998L7.21004 7.75998C6.84775 7.91483 6.53896 8.17275 6.32206 8.50166C6.10515 8.83058 5.9897 9.21598 5.99004 9.60998V11.98C5.99004 12.53 6.44004 12.98 6.99004 12.98C7.54004 12.98 7.99004 12.53 7.99004 11.98V9.57998L9.79004 8.87998L8.19004 16.98L4.27004 16.18C3.73004 16.07 3.20004 16.42 3.09004 16.96V17C2.98004 17.54 3.33004 18.07 3.87004 18.18L7.98004 19C8.49124 19.1014 9.02185 18.9994 9.4589 18.7155C9.89596 18.4316 10.2049 17.9883 10.32 17.48Z" fill="#6875F5"/>
</svg>
