<svg width="16" height="17" viewBox="0 0 16 17" fill="none" xmlns="http://www.w3.org/2000/svg">
<path d="M5.6509 11.2033C6.16242 11.2033 6.67939 11.1144 7.17878 10.9284C7.55272 10.7898 7.96273 10.7973 8.33152 10.9502C8.56152 11.0454 8.80424 11.0928 9.04606 11.0928C9.34091 11.0928 9.63485 11.0226 9.90425 10.8837C9.96031 10.855 10.0118 10.8204 10.0621 10.7845L12.6 12.0861C12.4936 12.4712 12.664 12.8928 13.0246 13.0779C13.1421 13.1381 13.2673 13.1668 13.3906 13.1668C13.6937 13.1668 13.9861 12.9943 14.1297 12.6962C14.2118 12.5265 14.234 12.3349 14.1985 12.1517C14.347 12.079 14.4712 11.9626 14.5555 11.8125C14.6658 11.6162 14.6952 11.3877 14.6382 11.1687C14.5815 10.9496 14.4452 10.7661 14.2546 10.6525C14.064 10.5389 13.8421 10.5083 13.6294 10.5673C13.4503 10.6163 13.2958 10.7274 13.1858 10.8769L10.6467 9.57493C10.6442 9.5119 10.64 9.44886 10.6282 9.38551C10.5288 8.82972 10.2021 8.34414 9.73182 8.05267C9.39061 7.84171 9.13788 7.50967 9.02 7.11834C8.42152 5.12766 6.57848 3.78078 4.56847 3.83508C3.68029 3.86036 2.85453 4.24014 2.24392 4.90453C1.63331 5.56893 1.31028 6.43897 1.33452 7.35364C1.35271 8.03675 1.56604 8.6921 1.9515 9.24851C2.81786 10.499 4.21423 11.2033 5.6509 11.2033ZM13.7082 10.8678C13.8424 10.831 13.9834 10.8497 14.1043 10.9221C14.2246 10.9936 14.3109 11.11 14.347 11.2486C14.4209 11.5347 14.2552 11.829 13.9776 11.9055C13.974 11.9064 13.9718 11.9089 13.9688 11.9101C13.9658 11.9108 13.9624 11.9101 13.9597 11.912C13.953 11.9148 13.9485 11.9198 13.9421 11.9236C13.9337 11.9292 13.9246 11.9339 13.9173 11.941C13.91 11.9476 13.9043 11.9554 13.8982 11.9632C13.8918 11.9707 13.8867 11.9788 13.8824 11.9875C13.8776 11.9963 13.8755 12.0059 13.873 12.0156C13.8706 12.0253 13.8676 12.0343 13.867 12.0443C13.8664 12.0546 13.8676 12.0649 13.8691 12.0755C13.87 12.0824 13.8682 12.0896 13.8703 12.0964C13.8709 12.0986 13.8734 12.0999 13.874 12.1024C13.8752 12.1067 13.8746 12.1108 13.8767 12.1152C13.933 12.2578 13.927 12.4188 13.86 12.557C13.7318 12.8217 13.4179 12.9303 13.1603 12.798C12.9033 12.666 12.7982 12.343 12.9264 12.0777C12.9637 12.0003 12.933 11.907 12.8579 11.8686L10.3064 10.5601C10.4646 10.3751 10.5733 10.1504 10.6212 9.90885L13.1733 11.2173C13.194 11.2276 13.2158 11.232 13.2373 11.2326C13.2385 11.2326 13.2397 11.2336 13.2409 11.2336C13.2446 11.2336 13.247 11.2311 13.2503 11.2308C13.2709 11.2292 13.2909 11.2236 13.3094 11.2133C13.3152 11.2105 13.32 11.2077 13.3255 11.2042C13.3461 11.1893 13.3649 11.1718 13.3767 11.1465C13.4427 11.0095 13.5637 10.9078 13.7082 10.8678ZM2.46422 5.11924C3.01938 4.51476 3.76999 4.16993 4.57726 4.14715C6.46333 4.08692 8.17242 5.35329 8.73152 7.20978C8.87121 7.67476 9.17152 8.06859 9.57697 8.3198C9.97273 8.56477 10.2476 8.97358 10.3309 9.44106C10.4149 9.91165 10.1839 10.3904 9.76879 10.6048C9.35576 10.8179 8.87334 10.8385 8.44515 10.6609C8.00697 10.479 7.5206 10.4703 7.07606 10.635C5.30029 11.2941 3.29453 10.65 2.19877 9.06751C1.84877 8.56196 1.65452 7.96623 1.63816 7.34521C1.61604 6.51387 1.90907 5.7234 2.46422 5.11924Z" fill="#233876" stroke="#233876" stroke-width="1.5"/>
</svg>
