<svg width="56" height="56" viewBox="0 0 56 56" fill="none" xmlns="http://www.w3.org/2000/svg">
<path fill-rule="evenodd" clip-rule="evenodd" d="M28 9.33317C18.9794 9.33317 11.6667 16.6459 11.6667 25.6665C11.6667 30.8141 14.7842 35.6252 19.1448 39.4042L27.1747 46.3636C27.6484 46.7741 28.3516 46.7741 28.8253 46.3636L36.8552 39.4042C41.2158 35.6252 44.3333 30.8141 44.3333 25.6665C44.3333 16.6459 37.0207 9.33317 28 9.33317ZM7 25.6665C7 14.0685 16.402 4.6665 28 4.6665C39.5981 4.6665 49 14.0685 49 25.6665C49 32.7281 44.7771 38.714 39.9114 42.9308L31.8815 49.8902C29.6539 51.8208 26.3461 51.8208 24.1185 49.8902L16.0884 42.9308C11.2228 38.714 7 32.7281 7 25.6665Z" fill="#EBF5FF"/>
<path opacity="0.6" fill-rule="evenodd" clip-rule="evenodd" d="M32.6666 25.6667C32.6666 28.2441 30.5773 30.3333 27.9999 30.3333C25.4225 30.3333 23.3333 28.2441 23.3333 25.6667C23.3333 23.0893 25.4225 21 27.9999 21C30.5773 21 32.6666 23.0893 32.6666 25.6667Z" fill="#EBF5FF"/>
</svg>
