<svg width="24" height="25" viewBox="0 0 24 25" fill="none" xmlns="http://www.w3.org/2000/svg">
<path d="M4.20404 15.5C3.43827 16.0883 3 16.7714 3 17.5C3 19.7091 7.02944 21.5 12 21.5C16.9706 21.5 21 19.7091 21 17.5C21 16.7714 20.5617 16.0883 19.796 15.5M12 7V12M9.5 9.5H14.5M18 9.72222C18 13.1587 15.3137 15.9444 12 17.5C8.68629 15.9444 6 13.1587 6 9.72222C6 6.28578 8.68629 3.5 12 3.5C15.3137 3.5 18 6.28578 18 9.72222Z" stroke="#1D4ED8" stroke-width="1.5" stroke-linecap="round" stroke-linejoin="round"/>
</svg>
