<svg width="16" height="17" viewBox="0 0 16 17" fill="none" xmlns="http://www.w3.org/2000/svg">
<path d="M8.54399 14.2385C11.234 12.8668 13.3334 10.5952 13.3334 7.83333C13.3334 4.88781 10.9456 2.5 8.00008 2.5C5.05456 2.5 2.66675 4.88781 2.66675 7.83333C2.66675 10.5952 4.76614 12.8668 7.45617 14.2385C7.79794 14.4127 8.20222 14.4127 8.54399 14.2385Z" stroke="#1D4ED8" stroke-linecap="round" stroke-linejoin="round"/>
<path d="M10.0001 7.83333C10.0001 8.9379 9.10465 9.83333 8.00008 9.83333C6.89551 9.83333 6.00008 8.9379 6.00008 7.83333C6.00008 6.72876 6.89551 5.83333 8.00008 5.83333C9.10465 5.83333 10.0001 6.72876 10.0001 7.83333Z" stroke="#1D4ED8" stroke-linecap="round" stroke-linejoin="round"/>
</svg>
