<svg width="24" height="24" viewBox="0 0 24 24" fill="none" xmlns="http://www.w3.org/2000/svg">
<path d="M11.975 21.505C11.685 21.5058 11.3977 21.4491 11.1296 21.3384C10.8616 21.2276 10.6181 21.065 10.4132 20.8598L2.861 13.3076C2.2644 12.7045 1.79378 11.9888 1.47656 11.202C1.15934 10.4152 1.00185 9.5732 1.01328 8.72497C1.01902 7.94763 1.17807 7.17907 1.48131 6.4633C1.78456 5.74753 2.22603 5.09862 2.78045 4.55374C3.33487 4.00885 3.99134 3.5787 4.71226 3.28792C5.43319 2.99714 6.20439 2.85145 6.98171 2.85919C7.77294 2.85122 8.55771 3.00222 9.28949 3.30324C10.0213 3.60427 10.6851 4.04918 11.2417 4.61159L11.975 5.34481L12.5762 4.74357C13.6144 3.67788 15.0036 3.02454 16.4865 2.90455C17.9695 2.78457 19.4456 3.20608 20.6416 4.091C21.3225 4.61529 21.8838 5.27861 22.2882 6.0368C22.6926 6.79498 22.9308 7.63062 22.987 8.48808C23.0432 9.34553 22.916 10.2051 22.6141 11.0096C22.3121 11.8141 21.8421 12.545 21.2356 13.1536L13.5367 20.8598C13.3318 21.065 13.0883 21.2276 12.8203 21.3384C12.5522 21.4491 12.265 21.5058 11.975 21.505ZM6.95238 4.3183C5.78694 4.31711 4.66675 4.76939 3.82885 5.57944C3.40167 5.99045 3.06196 6.48354 2.83013 7.02912C2.59829 7.5747 2.4791 8.1615 2.47972 8.7543C2.47329 9.40636 2.59637 10.0532 2.8418 10.6574C3.08723 11.2615 3.45015 11.8109 3.90951 12.2738L11.4617 19.826C11.5299 19.8947 11.611 19.9492 11.7003 19.9865C11.7897 20.0237 11.8855 20.0428 11.9823 20.0428C12.0791 20.0428 12.1749 20.0237 12.2643 19.9865C12.3536 19.9492 12.4347 19.8947 12.5029 19.826L20.209 12.1125C20.6614 11.6506 21.0109 11.0982 21.2346 10.4916C21.4582 9.88502 21.551 9.23798 21.5069 8.59299C21.4677 7.94138 21.2882 7.30593 20.9807 6.73013C20.6732 6.15432 20.2449 5.65175 19.7251 5.25682C18.8131 4.58438 17.6877 4.26643 16.5586 4.3622C15.4295 4.45798 14.3738 4.96095 13.588 5.77741L12.4955 6.89924C12.4274 6.96797 12.3463 7.02252 12.2569 7.05974C12.1676 7.09696 12.0717 7.11613 11.975 7.11613C11.8782 7.11613 11.7823 7.09696 11.693 7.05974C11.6036 7.02252 11.5225 6.96797 11.4544 6.89924L10.2079 5.65276C9.34936 4.8017 8.19058 4.32238 6.98171 4.3183H6.95238Z" fill="#D1D5DB" stroke="#D1D5DB" stroke-width="0.2"/>
</svg>
