<svg width="48" height="48" viewBox="0 0 48 48" fill="none" xmlns="http://www.w3.org/2000/svg">
<path opacity="0.6" fill-rule="evenodd" clip-rule="evenodd" d="M13.0077 8C12.2304 8 11.7503 8.84796 12.1502 9.51448L17.1255 17.8067C15.947 18.4735 14.8748 19.3062 13.9406 20.2732L8.72025 11.5724C6.72069 8.23982 9.12129 4 13.0077 4H17.7918C19.8606 4 21.7834 5.06572 22.8798 6.82L24.0092 8.62704L25.1386 6.82C26.235 5.06572 28.1578 4 30.2266 4H34.991C38.8776 4 41.2782 8.2399 39.2786 11.5725L34.0656 20.2606C33.1304 19.295 32.0572 18.4637 30.8782 17.7984L35.8486 9.5145C36.2484 8.84798 35.7684 8 34.991 8H30.2266C29.537 8 28.896 8.35524 28.5306 8.94L26.3676 12.4006L29.2512 17.0142C27.6322 16.3601 25.863 16 24.0098 16C23.9734 16 23.937 16.0001 23.9006 16.0004L19.4878 8.94C19.1223 8.35524 18.4814 8 17.7918 8H13.0077Z" fill="#EBF5FF"/>
<path fill-rule="evenodd" clip-rule="evenodd" d="M24.0098 44C31.7418 44 38.0098 37.732 38.0098 30C38.0098 22.268 31.7418 16 24.0098 16C16.2778 16 10.0098 22.268 10.0098 30C10.0098 37.732 16.2778 44 24.0098 44ZM24.0098 40C29.5326 40 34.0098 35.5228 34.0098 30C34.0098 24.4772 29.5326 20 24.0098 20C18.4869 20 14.0098 24.4772 14.0098 30C14.0098 35.5228 18.4869 40 24.0098 40ZM24.0098 34C26.219 34 28.0098 32.2092 28.0098 30C28.0098 27.7908 26.219 26 24.0098 26C21.8006 26 20.0098 27.7908 20.0098 30C20.0098 32.2092 21.8006 34 24.0098 34Z" fill="#EBF5FF"/>
</svg>
