<svg width="22" height="22" viewBox="0 0 22 22" fill="none" xmlns="http://www.w3.org/2000/svg">
<g clip-path="url(#clip0_3046_11046)">
<path fill-rule="evenodd" clip-rule="evenodd" d="M16.3927 1.8335C16.6505 1.83348 16.9054 1.88782 17.1407 1.99299C17.3761 2.09815 17.5866 2.25176 17.7586 2.4438C17.9306 2.63583 18.0601 2.86198 18.1387 3.10747C18.2174 3.35296 18.2434 3.61228 18.215 3.8685L16.5852 18.5352C16.5356 18.9838 16.3222 19.3983 15.9859 19.6993C15.6497 20.0004 15.2142 20.1669 14.7629 20.1668H7.23703C6.7857 20.1669 6.35022 20.0004 6.01397 19.6993C5.67772 19.3983 5.46435 18.9838 5.4147 18.5352L3.78578 3.8685C3.75744 3.61235 3.78341 3.35311 3.862 3.10769C3.9406 2.86226 4.07006 2.63616 4.24193 2.44414C4.41379 2.25212 4.62422 2.09848 4.85946 1.99327C5.09471 1.88805 5.3495 1.83361 5.6072 1.8335H16.3927ZM11.9166 13.7502C11.6735 13.7502 11.4403 13.8467 11.2684 14.0186C11.0965 14.1906 11 14.4237 11 14.6668C11 14.9099 11.0965 15.1431 11.2684 15.315C11.4403 15.4869 11.6735 15.5835 11.9166 15.5835C12.1597 15.5835 12.3929 15.4869 12.5648 15.315C12.7367 15.1431 12.8333 14.9099 12.8333 14.6668C12.8333 14.4237 12.7367 14.1906 12.5648 14.0186C12.3929 13.8467 12.1597 13.7502 11.9166 13.7502ZM9.16662 11.0002C8.9235 11.0002 8.69034 11.0967 8.51844 11.2686C8.34653 11.4406 8.24995 11.6737 8.24995 11.9168C8.24995 12.1599 8.34653 12.3931 8.51844 12.565C8.69034 12.7369 8.9235 12.8335 9.16662 12.8335C9.40973 12.8335 9.64289 12.7369 9.8148 12.565C9.98671 12.3931 10.0833 12.1599 10.0833 11.9168C10.0833 11.6737 9.98671 11.4406 9.8148 11.2686C9.64289 11.0967 9.40973 11.0002 9.16662 11.0002ZM16.3927 3.66683H5.6072L5.99678 7.17125L6.1682 7.141C6.40653 7.10066 6.68245 7.06766 6.9932 7.04933C8.0272 6.98791 9.43428 7.10158 11.054 7.73958L11.3611 7.86608C12.7288 8.45275 13.8957 8.57375 14.7354 8.54533L15.8574 8.483L16.3927 3.66683Z" fill="#2FAEC2"/>
</g>
<defs>
<clipPath id="clip0_3046_11046">
<rect width="22" height="22" fill="white"/>
</clipPath>
</defs>
</svg>
