<svg width="32" height="32" viewBox="0 0 32 32" fill="none" xmlns="http://www.w3.org/2000/svg">
<rect x="32" y="32" width="32" height="32" rx="8" transform="rotate(-180 32 32)" fill="white"/>
<path d="M16.75 10.75C16.75 10.3358 16.4142 10 16 10C15.5858 10 15.25 10.3358 15.25 10.75C15.25 11.1642 15.5858 11.5 16 11.5C16.4142 11.5 16.75 11.1642 16.75 10.75Z" fill="#1D4ED8"/>
<path d="M16.75 16C16.75 15.5858 16.4142 15.25 16 15.25C15.5858 15.25 15.25 15.5858 15.25 16C15.25 16.4142 15.5858 16.75 16 16.75C16.4142 16.75 16.75 16.4142 16.75 16Z" fill="#1D4ED8"/>
<path d="M16.75 21.25C16.75 20.8358 16.4142 20.5 16 20.5C15.5858 20.5 15.25 20.8358 15.25 21.25C15.25 21.6642 15.5858 22 16 22C16.4142 22 16.75 21.6642 16.75 21.25Z" fill="#1D4ED8"/>
<path d="M16.75 10.75C16.75 10.3358 16.4142 10 16 10C15.5858 10 15.25 10.3358 15.25 10.75C15.25 11.1642 15.5858 11.5 16 11.5C16.4142 11.5 16.75 11.1642 16.75 10.75Z" stroke="#1D4ED8" stroke-width="2" stroke-linecap="round" stroke-linejoin="round"/>
<path d="M16.75 16C16.75 15.5858 16.4142 15.25 16 15.25C15.5858 15.25 15.25 15.5858 15.25 16C15.25 16.4142 15.5858 16.75 16 16.75C16.4142 16.75 16.75 16.4142 16.75 16Z" stroke="#1D4ED8" stroke-width="2" stroke-linecap="round" stroke-linejoin="round"/>
<path d="M16.75 21.25C16.75 20.8358 16.4142 20.5 16 20.5C15.5858 20.5 15.25 20.8358 15.25 21.25C15.25 21.6642 15.5858 22 16 22C16.4142 22 16.75 21.6642 16.75 21.25Z" stroke="#1D4ED8" stroke-width="2" stroke-linecap="round" stroke-linejoin="round"/>
</svg>
