<svg width="24" height="24" viewBox="0 0 24 24" fill="none" xmlns="http://www.w3.org/2000/svg">
<g clip-path="url(#clip0_2933_9413)">
<path d="M10.575 17.3644L8.48347 16.8415C8.34931 16.8088 8.20767 16.8306 8.08949 16.902C7.97131 16.9734 7.88619 17.0887 7.85273 17.2226C7.81928 17.3566 7.8402 17.4984 7.91092 17.617C7.98165 17.7356 8.09644 17.8213 8.23021 17.8556L10.3217 18.3784C10.4562 18.412 10.5985 18.3908 10.7173 18.3195C10.8362 18.2481 10.9218 18.1325 10.9554 17.998C10.989 17.8636 10.9677 17.7212 10.8964 17.6024C10.8251 17.4836 10.7094 17.398 10.575 17.3644Z" fill="#233876" stroke="#233876"/>
<path d="M15.5505 16.8415L13.459 17.3644C13.3924 17.381 13.3297 17.4106 13.2746 17.4514C13.2194 17.4923 13.1729 17.5436 13.1375 17.6024C13.1022 17.6612 13.0788 17.7265 13.0687 17.7944C13.0586 17.8622 13.0619 17.9314 13.0786 17.998C13.0952 18.0646 13.1248 18.1273 13.1656 18.1824C13.2065 18.2376 13.2578 18.2841 13.3166 18.3195C13.3755 18.3548 13.4407 18.3782 13.5086 18.3883C13.5764 18.3984 13.6456 18.3951 13.7122 18.3784L15.8037 17.8556C15.9375 17.8213 16.0523 17.7356 16.123 17.617C16.1937 17.4984 16.2147 17.3566 16.1812 17.2226C16.1477 17.0887 16.0626 16.9734 15.9444 16.902C15.8263 16.8306 15.6846 16.8088 15.5505 16.8415Z" fill="#233876" stroke="#233876"/>
<path d="M23.5026 18.7833L22.8919 16.4953C22.7245 16.1205 22.4665 15.7933 22.141 15.5431C21.8155 15.293 21.4329 15.1279 21.0276 15.0626L16.9668 14.459C16.697 14.4036 16.4464 14.2785 16.2399 14.0962C16.0334 13.9139 15.8783 13.6808 15.7898 13.4199L15.2682 11.8554C16.2183 11.0531 16.9814 10.0526 17.5036 8.92401C18.0259 7.79545 18.2948 6.56623 18.2914 5.32268C18.2914 5.184 18.2363 5.05101 18.1383 4.95295C18.0402 4.85489 17.9072 4.7998 17.7685 4.7998C17.6299 4.7998 17.4969 4.85489 17.3988 4.95295C17.3008 5.05101 17.2457 5.184 17.2457 5.32268C17.2457 9.15071 14.4348 12.12 12.0169 12.12C9.5991 12.12 6.78821 9.15071 6.78821 5.32268C6.78821 5.184 6.73312 5.05101 6.63506 4.95295C6.537 4.85489 6.40401 4.7998 6.26533 4.7998C6.12666 4.7998 5.99366 4.85489 5.89561 4.95295C5.79755 5.05101 5.74246 5.184 5.74246 5.32268C5.73904 6.56624 6.00792 7.79548 6.53022 8.92405C7.05252 10.0526 7.81556 11.0532 8.76577 11.8554L8.25427 13.3918C8.16989 13.6548 8.01828 13.8912 7.81445 14.0776C7.61061 14.264 7.36162 14.394 7.09213 14.4545L2.9807 15.0671C2.56989 15.1385 2.18384 15.3128 1.85858 15.5737C1.53331 15.8346 1.27941 16.1736 1.12055 16.5591L0.531322 18.7833C0.513752 18.8497 0.509429 18.9189 0.518601 18.987C0.527772 19.055 0.550259 19.1206 0.584775 19.18C0.619292 19.2393 0.665164 19.2913 0.719771 19.3329C0.774377 19.3746 0.83665 19.405 0.903033 19.4226C0.946871 19.4341 0.992007 19.44 1.03733 19.44C1.15261 19.4398 1.26461 19.4016 1.35593 19.3312C1.44725 19.2609 1.51278 19.1623 1.54232 19.0509L2.11011 16.8905C2.20729 16.6827 2.35377 16.5018 2.53683 16.3635C2.71989 16.2252 2.93396 16.1337 3.16043 16.097L7.27134 15.4843C7.72056 15.3895 8.13759 15.1801 8.48182 14.8763C8.82605 14.5725 9.08576 14.1847 9.23565 13.7508L9.6626 12.4704C10.3734 12.9033 11.185 13.143 12.0169 13.1656C12.849 13.143 13.6606 12.9032 14.3715 12.4702L14.8084 13.7788C14.9626 14.2105 15.2258 14.5949 15.5727 14.8946C15.9195 15.1943 16.338 15.399 16.7875 15.4889L20.8479 16.0924C21.0687 16.1242 21.279 16.2071 21.4621 16.3346C21.6452 16.4621 21.7959 16.6306 21.9023 16.8267L22.4916 19.0509C22.5211 19.1623 22.5866 19.2609 22.6779 19.3312C22.7693 19.4016 22.8813 19.4398 22.9965 19.44C23.0419 19.44 23.087 19.4341 23.1308 19.4226C23.1972 19.405 23.2595 19.3746 23.3141 19.3329C23.3687 19.2913 23.4146 19.2393 23.4491 19.18C23.4836 19.1206 23.5061 19.055 23.5153 18.987C23.5245 18.9189 23.5201 18.8497 23.5026 18.7833Z" fill="#233876" stroke="#233876"/>
</g>
<defs>
<clipPath id="clip0_2933_9413">
<rect width="24" height="24" fill="white"/>
</clipPath>
</defs>
</svg>
