<svg width="24" height="24" viewBox="0 0 24 24" fill="none" xmlns="http://www.w3.org/2000/svg">
<path d="M15 3.00024C16.5315 3.17038 17.9097 3.91131 19 5.00024C20.0903 6.08917 20.8279 7.46893 21 9.00024M14.5 6.50024C15.2372 6.64407 15.9689 6.96917 16.5 7.50024C17.0311 8.03132 17.3562 8.76309 17.5 9.50024M8.20049 15.7993C1.3025 8.90047 2.28338 5.7414 3.01055 4.7234C3.10396 4.55887 5.40647 1.11212 7.87459 3.13431C14.0008 8.1797 6.5 8.00024 11.3894 12.6115C16.2788 17.2228 15.8214 10.0002 20.8659 16.1251C22.8882 18.5942 19.4413 20.8967 19.2778 20.989C18.2598 21.7172 15.0995 22.6981 8.20049 15.7993Z" stroke="#233876" stroke-width="1.5" stroke-linecap="round" stroke-linejoin="round"/>
</svg>
