<svg width="24" height="24" viewBox="0 0 24 24" fill="none" xmlns="http://www.w3.org/2000/svg">
<path d="M20.0544 6.92275H18.7504C18.4985 3.61802 15.5715 1 12.0009 1C8.43042 1 5.50343 3.61802 5.25154 6.92275H3.94561C3.40834 6.92275 2.88959 7.13513 2.52333 7.50529C2.1566 7.87545 1.96753 8.3772 2.00458 8.88208L2.91287 21.2927C2.98317 22.2501 3.83588 23 4.85438 23H19.1456C20.1641 23 21.0168 22.2501 21.0871 21.2927L21.9954 8.8823C22.0325 8.3772 21.8434 7.87545 21.4767 7.50529C21.1104 7.13513 20.5917 6.92275 20.0544 6.92275ZM11.5145 22.0833H4.85438C4.34513 22.0833 3.91854 21.7083 3.88386 21.2296L2.97557 8.81875C2.95657 8.56272 3.04873 8.31834 3.23447 8.1308C3.42069 7.94281 3.67294 7.83942 3.94561 7.83942H5.25136C5.49016 10.9936 8.16704 13.5164 11.5145 13.7421V22.0833ZM6.1997 7.38265C6.1997 4.36879 8.802 1.91667 12.0009 1.91667C15.1988 1.91667 17.8003 4.36712 17.8021 7.37963C17.8021 7.38013 17.8017 7.38058 17.8017 7.38108C17.8017 7.38181 17.8022 7.38245 17.8022 7.38318C17.8019 10.3968 15.1997 12.8486 12.0009 12.8486C8.802 12.8486 6.1997 10.3965 6.1997 7.38265ZM20.1161 21.2296C20.0815 21.7083 19.6549 22.0833 19.1456 22.0833H12.4874V13.7421C15.8349 13.5164 18.5117 10.9936 18.7505 7.83942H20.0544C20.3271 7.83942 20.5793 7.94281 20.7655 8.1308C20.9513 8.31834 21.0434 8.56272 21.0244 8.81897L20.1161 21.2296Z" fill="black" stroke="#233876"/>
<path d="M12.1676 7.09591V5.59845C12.1676 5.46238 12.0392 5.35205 11.8805 5.35205C11.7218 5.35205 11.5933 5.46238 11.5933 5.59845V7.09591C11.2598 7.19795 11.019 7.4689 11.019 7.7897C11.019 8.19732 11.4055 8.5289 11.8805 8.5289C12.3555 8.5289 12.7419 8.19732 12.7419 7.7897C12.7419 7.4689 12.5011 7.19795 12.1676 7.09591ZM11.8805 8.0361C11.722 8.0361 11.5933 7.92554 11.5933 7.7897C11.5933 7.65387 11.722 7.5433 11.8805 7.5433C12.0389 7.5433 12.1676 7.65387 12.1676 7.7897C12.1676 7.92554 12.0389 8.0361 11.8805 8.0361Z" fill="black" stroke="#233876"/>
</svg>
