<svg width="49" height="48" viewBox="0 0 49 48" fill="none" xmlns="http://www.w3.org/2000/svg">
<path d="M11.6856 22.115L17.9103 14.3589C17.97 14.2794 18.0495 14.1998 18.1191 14.1302V14.0507L18.6362 13.7524L18.676 13.7723C19.0041 13.6231 19.4118 13.5833 19.7897 13.643C19.8692 13.6529 19.9488 13.6728 20.0283 13.7027C20.436 13.8319 20.794 14.0805 21.0426 14.4286L21.2116 14.5578V14.697L30.141 29.2147L35.242 22.8607C35.6199 22.3934 36.1668 22.1349 36.7634 22.1349H46.9954C48.9046 17.4116 48.0793 11.704 44.4896 7.85582C42.1827 5.37986 39.1002 4.01758 35.8088 4.01758C32.5075 4.01758 29.425 5.37985 27.1479 7.83593L24.7018 10.4014L22.2756 7.85582C19.9686 5.37986 16.8861 4.01758 13.5948 4.01758C10.2935 4.01758 7.21097 5.37986 4.91399 7.85582C1.33429 11.7139 0.499025 17.4116 2.4082 22.1349H11.6856V22.115Z" fill="#FBD5D5"/>
<path d="M30.9861 34.2166L30.7972 34.326C30.5287 34.4652 30.2304 34.5348 29.9222 34.5348C29.8028 34.5348 29.6736 34.5248 29.5542 34.5049L29.3753 34.4652C28.9179 34.326 28.5201 34.0376 28.2715 33.6399L19.2328 18.9531L14.1317 25.3071C13.7538 25.7744 13.2069 26.033 12.6103 26.033H4.82446C4.84435 26.0628 4.86424 26.0827 4.89407 26.1125L19.9089 42.0919C21.1419 43.4045 22.8821 44.1602 24.6819 44.1602C26.4817 44.1602 28.2218 43.4045 29.4548 42.0919L44.4796 26.1026C44.4995 26.0827 44.5194 26.0529 44.5393 26.033H37.6881L31.4535 33.789C31.3441 33.9382 31.1751 34.0973 30.9861 34.2166Z" fill="#FBD5D5"/>
</svg>
