<svg width="40" height="40" viewBox="0 0 40 40" fill="none" xmlns="http://www.w3.org/2000/svg">
<rect width="40" height="40" rx="8" fill="#FDF2F2"/>
<path fill-rule="evenodd" clip-rule="evenodd" d="M13.9844 12.9865C13.4329 12.9951 12.9925 13.4486 13 14.0001V19.8322C12.9822 19.9401 12.9822 20.0503 13 20.1583V26.0001C12.9949 26.3608 13.1844 26.6962 13.4959 26.878C13.8074 27.0598 14.1926 27.0598 14.5041 26.878C14.8156 26.6962 15.0051 26.3608 15 26.0001V21.0001H25V26.0001C24.9949 26.3608 25.1844 26.6962 25.4959 26.878C25.8074 27.0598 26.1926 27.0598 26.5041 26.878C26.8156 26.6962 27.0051 26.3608 27 26.0001V20.1681C27.0179 20.0601 27.0179 19.9499 27 19.8419V14.0001C27.0037 13.7298 26.8978 13.4695 26.7065 13.2786C26.5152 13.0876 26.2547 12.9822 25.9844 12.9865C25.4329 12.9951 24.9925 13.4486 25 14.0001V19.0001H15V14.0001C15.0037 13.7298 14.8978 13.4695 14.7065 13.2786C14.5152 13.0876 14.2547 12.9822 13.9844 12.9865Z" fill="#F05252"/>
<path fill-rule="evenodd" clip-rule="evenodd" d="M10.9844 14.9865C10.4329 14.9951 9.99247 15.4486 10 16.0001V19.0001H9.00002C8.63939 18.995 8.30394 19.1845 8.12213 19.496C7.94033 19.8075 7.94033 20.1928 8.12213 20.5042C8.30394 20.8157 8.63939 21.0052 9.00002 21.0001H10V24.0001C9.99492 24.3608 10.1844 24.6962 10.4959 24.878C10.8074 25.0598 11.1927 25.0598 11.5041 24.878C11.8156 24.6962 12.0051 24.3608 12 24.0001V20.1681C12.0179 20.0601 12.0179 19.9499 12 19.8419V16.0001C12.0037 15.7298 11.8978 15.4695 11.7065 15.2786C11.5152 15.0876 11.2547 14.9822 10.9844 14.9865ZM28.9844 14.9865C28.4329 14.9951 27.9925 15.4486 28 16.0001V19.8322C27.9822 19.9401 27.9822 20.0503 28 20.1583V24.0001C27.9949 24.3608 28.1844 24.6962 28.4959 24.878C28.8074 25.0598 29.1927 25.0598 29.5041 24.878C29.8156 24.6962 30.0051 24.3608 30 24.0001V21.0001H31C31.3607 21.0052 31.6961 20.8157 31.8779 20.5042C32.0597 20.1928 32.0597 19.8075 31.8779 19.496C31.6961 19.1845 31.3607 18.995 31 19.0001H30V16.0001C30.0037 15.7298 29.8978 15.4695 29.7065 15.2786C29.5152 15.0876 29.2547 14.9822 28.9844 14.9865Z" fill="#F05252"/>
</svg>
