<svg width="81" height="80" viewBox="0 0 81 80" fill="none" xmlns="http://www.w3.org/2000/svg">
<rect x="5.5" y="5" width="70" height="70" rx="35" fill="#3F83F8"/>
<rect x="5.5" y="5" width="70" height="70" rx="35" stroke="#E1EFFE" stroke-width="10"/>
<rect x="8" y="7" width="66" height="66" rx="33" fill="#EBF5FF"/>
<path d="M43.4399 32.5368L44.0999 34.5368C44.3982 35.4624 45.2574 36.0917 46.2299 36.0968H48.3099C49.2854 36.0906 50.1528 36.7164 50.4544 37.6441C50.756 38.5718 50.4226 39.5881 49.6299 40.1568L47.9199 41.3968C47.1328 41.9682 46.802 42.9808 47.0999 43.9068L47.7599 45.9068C48.0864 46.8359 47.7677 47.8692 46.9746 48.4531C46.1816 49.037 45.1002 49.0344 44.3099 48.4468L42.6299 47.1968C41.8424 46.6262 40.7775 46.6262 39.9899 47.1968L38.3099 48.4468C37.5241 49.0219 36.4566 49.0235 35.6691 48.4505C34.8816 47.8776 34.5545 46.8615 34.8599 45.9368L35.5199 43.9368C35.8179 43.0108 35.4871 41.9982 34.6999 41.4268L32.9499 40.1668C32.1412 39.5969 31.8021 38.5641 32.1156 37.6258C32.4292 36.6875 33.3211 36.0659 34.3099 36.0968H36.3899C37.3571 36.0946 38.2147 35.4745 38.5199 34.5568L39.1799 32.5568C39.4758 31.633 40.3327 31.0046 41.3027 31C42.2727 30.9955 43.1354 31.6158 43.4399 32.5368Z" fill="#1D4ED8"/>
</svg>
