<svg width="24" height="24" viewBox="0 0 24 24" fill="none" xmlns="http://www.w3.org/2000/svg">
<path d="M13.9391 11.993C10.3516 11.6624 6.76587 11.3316 3.18181 11.0007C3.17792 11.0002 3.17427 10.9987 3.17134 10.9962C3.16841 10.9936 3.16634 10.9903 3.1654 10.9866C2.56727 8.58475 1.96181 6.16584 1.34899 3.7299C1.28243 3.46553 1.25009 3.25115 1.25196 3.08678C1.26556 1.68662 2.71446 0.839121 3.95993 1.46256C9.81556 4.39381 15.6568 7.31381 21.4837 10.2226C21.7906 10.3757 22.0043 10.5066 22.1249 10.6154C22.9635 11.3715 22.9518 12.6357 22.1174 13.3927C22.0062 13.4937 21.7812 13.6287 21.4424 13.7977C15.6452 16.6918 9.80821 19.6096 3.93134 22.5512C3.47852 22.778 2.96149 22.809 2.47868 22.6407C1.7479 22.3862 1.20602 21.6446 1.25337 20.8379C1.26243 20.6857 1.30259 20.4676 1.37384 20.1835C1.97165 17.7919 2.56946 15.401 3.16727 13.0107C3.16795 13.0078 3.16954 13.0053 3.17181 13.0033C3.17408 13.0014 3.17692 13.0002 3.17993 12.9999C6.76399 12.669 10.3488 12.338 13.9345 12.0071C13.9401 12.0068 13.9434 12.0047 13.9443 12.001C13.9446 11.9997 13.9446 11.9985 13.9443 11.9972C13.9437 11.9947 13.942 11.9933 13.9391 11.993Z" fill="#57BAF5"/>
</svg>
