<svg width="139" height="142" viewBox="0 0 139 142" fill="none" xmlns="http://www.w3.org/2000/svg">
<g filter="url(#filter0_d_2475_11124)">
<circle cx="64" cy="67" r="43" fill="url(#paint0_linear_2475_11124)"/>
</g>
<circle cx="64" cy="67" r="32.3388" fill="#F3F6FB"/>
<g filter="url(#filter1_d_2475_11124)">
<circle cx="63.9999" cy="67.0001" r="12.0826" fill="#F3F6FB"/>
</g>
<circle cx="63.9999" cy="67.0002" r="39.4587" stroke="white" stroke-width="5" stroke-miterlimit="1" stroke-dasharray="2 20"/>
<line x1="100.588" y1="66.3772" x2="103.605" y2="66.3772" stroke="#C8D6ED" stroke-width="2"/>
<line x1="63.3772" y1="30.0352" x2="63.3772" y2="27.0176" stroke="#C8D6ED" stroke-width="2"/>
<line x1="27.0349" y1="67.6228" x2="24.0174" y2="67.6228" stroke="#C8D6ED" stroke-width="2"/>
<line x1="63.3772" y1="106.605" x2="63.3772" y2="103.588" stroke="#C8D6ED" stroke-width="2"/>
<mask id="mask0_2475_11124" style="mask-type:luminance" maskUnits="userSpaceOnUse" x="54" y="58" width="19" height="19">
<path d="M60.7302 59.6738C60.4665 60.4928 60.3326 61.348 60.3333 62.2084C60.3333 66.7647 64.027 70.4584 68.5833 70.4584C69.7079 70.4598 70.8207 70.2305 71.8531 69.7847C70.7838 73.1016 67.6722 75.5001 64 75.5001C59.4437 75.5001 55.75 71.8064 55.75 67.2501C55.75 63.8552 57.8001 60.9397 60.7302 59.6738Z" fill="white" stroke="white" stroke-width="2" stroke-linejoin="round"/>
<path d="M67.5108 60.8335H71.7916L67.2083 64.5002H71.7916" stroke="white" stroke-width="2" stroke-linecap="round" stroke-linejoin="round"/>
</mask>
<g mask="url(#mask0_2475_11124)">
<path d="M53 56.25H75V78.25H53V56.25Z" fill="#A4CAFE"/>
</g>
<defs>
<filter id="filter0_d_2475_11124" x="0" y="0" width="142" height="142" filterUnits="userSpaceOnUse" color-interpolation-filters="sRGB">
<feFlood flood-opacity="0" result="BackgroundImageFix"/>
<feColorMatrix in="SourceAlpha" type="matrix" values="0 0 0 0 0 0 0 0 0 0 0 0 0 0 0 0 0 0 127 0" result="hardAlpha"/>
<feOffset dx="7" dy="4"/>
<feGaussianBlur stdDeviation="14"/>
<feColorMatrix type="matrix" values="0 0 0 0 0.816406 0 0 0 0 0.858789 0 0 0 0 0.9375 0 0 0 0.2 0"/>
<feBlend mode="normal" in2="BackgroundImageFix" result="effect1_dropShadow_2475_11124"/>
<feBlend mode="normal" in="SourceGraphic" in2="effect1_dropShadow_2475_11124" result="shape"/>
</filter>
<filter id="filter1_d_2475_11124" x="27.9172" y="30.9175" width="72.1653" height="72.1653" filterUnits="userSpaceOnUse" color-interpolation-filters="sRGB">
<feFlood flood-opacity="0" result="BackgroundImageFix"/>
<feColorMatrix in="SourceAlpha" type="matrix" values="0 0 0 0 0 0 0 0 0 0 0 0 0 0 0 0 0 0 127 0" result="hardAlpha"/>
<feOffset/>
<feGaussianBlur stdDeviation="12"/>
<feColorMatrix type="matrix" values="0 0 0 0 0.870486 0 0 0 0 0.895585 0 0 0 0 0.958333 0 0 0 1 0"/>
<feBlend mode="normal" in2="BackgroundImageFix" result="effect1_dropShadow_2475_11124"/>
<feBlend mode="normal" in="SourceGraphic" in2="effect1_dropShadow_2475_11124" result="shape"/>
</filter>
<linearGradient id="paint0_linear_2475_11124" x1="98.1157" y1="86.5455" x2="36.8141" y2="34.6612" gradientUnits="userSpaceOnUse">
<stop stop-color="#E6EDFA"/>
<stop offset="1" stop-color="#E6EDFA" stop-opacity="0.33"/>
</linearGradient>
</defs>
</svg>
