<svg width="25" height="24" viewBox="0 0 25 24" fill="none" xmlns="http://www.w3.org/2000/svg">
<path d="M11.9905 17.7915C12.3112 17.6289 12.6888 17.6289 13.0095 17.7915L17.1206 19.8751C17.9912 20.3164 18.9716 19.5193 18.7355 18.562L17.7742 14.6645C17.6823 14.2918 17.7792 13.8972 18.0327 13.6117L21.2058 10.0378C21.8384 9.32543 21.3891 8.18715 20.4463 8.11364L16.0197 7.76848C15.6057 7.73619 15.2417 7.47809 15.0699 7.09485L13.5373 3.67703C13.1325 2.77432 11.8675 2.77432 11.4627 3.67703L9.93013 7.09485C9.75828 7.47809 9.39434 7.73619 8.98026 7.76848L4.55367 8.11364C3.61095 8.18715 3.16165 9.32543 3.79416 10.0378L6.96729 13.6117C7.22079 13.8972 7.31767 14.2918 7.22576 14.6645L6.26452 18.562C6.02842 19.5193 7.00876 20.3164 7.87943 19.8751L11.9905 17.7915Z" stroke="#1D4ED8" stroke-width="1.5" stroke-linecap="round" stroke-linejoin="round"/>
</svg>
