<svg width="16" height="17" viewBox="0 0 16 17" fill="none" xmlns="http://www.w3.org/2000/svg">
<path d="M8.3397 12.361C8.12585 12.2526 7.87415 12.2526 7.6603 12.361L4.91962 13.7501C4.33917 14.0443 3.68562 13.5128 3.84301 12.8747L4.48384 10.2763C4.54511 10.0279 4.48053 9.76482 4.31153 9.57448L2.1961 7.19188C1.77443 6.71696 2.07397 5.9581 2.70244 5.90909L5.65351 5.67899C5.92956 5.65746 6.17219 5.48539 6.28676 5.2299L7.30849 2.95136C7.57835 2.34955 8.42165 2.34955 8.69151 2.95135L9.71324 5.2299C9.82781 5.48539 10.0704 5.65746 10.3465 5.67899L13.2976 5.90909C13.926 5.9581 14.2256 6.71695 13.8039 7.19188L11.6885 9.57448C11.5195 9.76482 11.4549 10.0279 11.5162 10.2763L12.157 12.8747C12.3144 13.5128 11.6608 14.0443 11.0804 13.7501L8.3397 12.361Z" stroke="#28A745" stroke-linecap="round" stroke-linejoin="round"/>
</svg>
