<svg width="24" height="24" viewBox="0 0 24 24" fill="none" xmlns="http://www.w3.org/2000/svg">
<path d="M12.5095 17.7918C12.1888 17.6292 11.8112 17.6292 11.4905 17.7918L7.37943 19.8754C6.50876 20.3167 5.52842 19.5195 5.76452 18.5622L6.72576 14.6647C6.81767 14.2921 6.72079 13.8975 6.46729 13.612L3.29416 10.0381C2.66165 9.32568 3.11095 8.18739 4.05367 8.11389L8.48026 7.76872C8.89433 7.73644 9.25828 7.47833 9.43013 7.09509L10.9627 3.67728C11.3675 2.77457 12.6325 2.77457 13.0373 3.67728L14.5699 7.09509C14.7417 7.47833 15.1057 7.73644 15.5197 7.76872L19.9463 8.11389C20.889 8.18739 21.3384 9.32568 20.7058 10.0381L17.5327 13.612C17.2792 13.8975 17.1823 14.2921 17.2742 14.6647L18.2355 18.5622C18.4716 19.5195 17.4912 20.3167 16.6206 19.8754L12.5095 17.7918Z" stroke="#233876" stroke-width="1.5" stroke-linecap="round" stroke-linejoin="round"/>
</svg>
