<svg width="16" height="16" viewBox="0 0 16 16" fill="none" xmlns="http://www.w3.org/2000/svg">
<path d="M9.62662 3.0245L10.0666 4.35784C10.2654 4.97496 10.8383 5.39449 11.4866 5.39784H12.8733C13.5236 5.39371 14.1018 5.81093 14.3029 6.42941C14.504 7.04789 14.2817 7.72539 13.7533 8.1045L12.6133 8.93117C12.0885 9.31214 11.868 9.9872 12.0666 10.6045L12.5066 11.9378C12.7242 12.5573 12.5118 13.2462 11.9831 13.6354C11.4544 14.0247 10.7335 14.0229 10.2066 13.6312L9.08662 12.7978C8.5616 12.4175 7.85164 12.4175 7.32662 12.7978L6.20662 13.6312C5.68271 14.0146 4.97108 14.0156 4.44608 13.6337C3.92109 13.2517 3.70303 12.5743 3.90662 11.9578L4.34662 10.6245C4.54526 10.0072 4.32472 9.33214 3.79995 8.95117L2.63329 8.11117C2.09415 7.73128 1.86807 7.0427 2.07709 6.41717C2.28612 5.79163 2.88074 5.3773 3.53995 5.39784H4.92662C5.57142 5.39639 6.14315 4.98303 6.34662 4.37117L6.78662 3.03784C6.98387 2.42197 7.55511 2.00305 8.20178 2.00002C8.84845 1.99698 9.42359 2.41052 9.62662 3.0245Z" fill="#28A745"/>
</svg>
