<svg width="16" height="16" viewBox="0 0 16 16" fill="none" xmlns="http://www.w3.org/2000/svg">
<path d="M8.3397 11.861C8.12585 11.7526 7.87415 11.7526 7.6603 11.861L4.91962 13.2501C4.33917 13.5443 3.68562 13.0128 3.84301 12.3747L4.48384 9.77631C4.54511 9.52787 4.48053 9.26482 4.31153 9.07448L2.1961 6.69188C1.77443 6.21696 2.07397 5.4581 2.70244 5.40909L5.65351 5.17899C5.92956 5.15746 6.17219 4.98539 6.28676 4.7299L7.30849 2.45136C7.57835 1.84955 8.42165 1.84955 8.69151 2.45135L9.71324 4.7299C9.82781 4.98539 10.0704 5.15746 10.3465 5.17899L13.2976 5.40909C13.926 5.4581 14.2256 6.21695 13.8039 6.69188L11.6885 9.07448C11.5195 9.26482 11.4549 9.52787 11.5162 9.77631L12.157 12.3747C12.3144 13.0128 11.6608 13.5443 11.0804 13.2501L8.3397 11.861Z" stroke="#1D4ED8" stroke-width="1.5" stroke-linecap="round" stroke-linejoin="round"/>
</svg>
