<?xml version="1.0" standalone="no"?>
<!DOCTYPE svg PUBLIC "-//W3C//DTD SVG 20010904//EN"
 "http://www.w3.org/TR/2001/REC-SVG-20010904/DTD/svg10.dtd">
<svg version="1.0" xmlns="http://www.w3.org/2000/svg"
 width="512.000000pt" height="512.000000pt" viewBox="0 0 512.000000 512.000000"
 preserveAspectRatio="xMidYMid meet">

<g transform="translate(0.000000,512.000000) scale(0.100000,-0.100000)"
fill="#000000" stroke="none">
<path d="M2455 5106 c-83 -20 -146 -56 -211 -120 -177 -178 -177 -455 0 -631
179 -178 455 -178 631 -1 178 179 178 454 1 632 -114 114 -267 158 -421 120z"/>
<path d="M1885 4157 c-44 -18 -109 -52 -145 -76 -39 -27 -204 -182 -412 -390
-392 -391 -400 -401 -400 -530 0 -90 29 -156 94 -217 49 -46 50 -46 96 -38 26
4 100 8 164 8 l118 1 230 230 230 230 0 -228 0 -227 700 0 700 0 0 227 0 228
230 -230 230 -230 118 -1 c64 0 138 -4 163 -8 46 -8 48 -7 93 34 66 61 98 131
98 219 0 131 -7 140 -400 532 -374 374 -432 421 -577 474 l-76 28 -62 -60
c-290 -284 -763 -281 -1042 6 -27 28 -54 51 -60 51 -5 0 -46 -15 -90 -33z"/>
<path d="M78 3199 c-23 -12 -46 -35 -58 -59 -19 -38 -20 -58 -20 -670 0 -612
1 -632 20 -670 23 -45 80 -80 130 -80 50 0 107 35 130 80 18 36 20 58 20 280
l0 240 180 0 180 0 0 33 c0 46 34 177 60 226 l20 41 -220 0 -220 0 0 240 c0
222 -2 244 -20 280 -37 73 -127 99 -202 59z"/>
<path d="M4898 3199 c-23 -12 -46 -35 -58 -59 -18 -36 -20 -58 -20 -280 l0
-240 -220 0 -220 0 20 -41 c26 -49 60 -180 60 -226 l0 -33 180 0 180 0 0 -240
c0 -222 2 -244 20 -280 23 -45 80 -80 130 -80 50 0 107 35 130 80 19 38 20 58
20 670 0 612 -1 632 -20 670 -37 73 -127 99 -202 59z"/>
<path d="M1165 2603 c-97 -35 -162 -102 -190 -196 -22 -74 -22 -1008 0 -1112
47 -225 235 -413 460 -460 46 -10 130 -15 248 -15 l177 0 0 -350 c0 -332 1
-353 20 -390 13 -26 34 -47 60 -60 38 -19 58 -20 620 -20 562 0 582 1 620 20
26 13 47 34 60 60 19 37 20 58 20 390 l0 350 178 0 c207 0 283 13 392 66 103
51 213 161 264 264 65 133 67 159 64 734 -3 495 -4 512 -24 557 -31 66 -78
114 -142 146 -47 23 -70 28 -132 28 -125 0 -222 -62 -274 -174 -20 -44 -21
-62 -24 -533 l-3 -488 -197 0 -198 0 -64 -66 c-305 -312 -775 -312 -1080 0
l-64 66 -198 0 -197 0 -3 488 c-3 471 -4 489 -24 533 -65 140 -229 212 -369
162z"/>
<path d="M1800 2579 c26 -49 60 -180 60 -226 l0 -33 323 -1 c276 -1 315 -2
272 -13 -83 -20 -146 -56 -211 -120 -177 -178 -177 -455 0 -631 179 -178 455
-178 631 -1 137 138 171 338 88 514 -52 111 -188 218 -306 242 -26 5 81 8 281
9 l322 1 0 33 c0 46 34 177 60 226 l20 41 -780 0 -780 0 20 -41z"/>
</g>
</svg>
