<svg width="139" height="138" viewBox="0 0 139 138" fill="none" xmlns="http://www.w3.org/2000/svg">
<rect x="0.5" width="138" height="138" rx="69" fill="#FDF2F2"/>
<path opacity="0.15" d="M86.75 86.25V51.75H52.25V86.25C52.25 89.4256 54.8244 92 58 92H81C84.1756 92 86.75 89.4256 86.75 86.25Z" fill="#E1EFFE"/>
<path d="M63.75 63.25V80.5M75.25 63.25V80.5M86.75 51.75V86.25C86.75 89.4256 84.1756 92 81 92H58C54.8244 92 52.25 89.4256 52.25 86.25V51.75M46.5 51.75H92.5M78.125 51.75V48.875C78.125 45.6994 75.5506 43.125 72.375 43.125H66.625C63.4494 43.125 60.875 45.6994 60.875 48.875V51.75" stroke="#F05252" stroke-width="5" stroke-linecap="round" stroke-linejoin="round"/>
</svg>
