<svg width="81" height="80" viewBox="0 0 81 80" fill="none" xmlns="http://www.w3.org/2000/svg">
<g clip-path="url(#clip0_2803_16882)">
<rect x="0.5" width="80" height="80" rx="40" fill="#BCF0DA"/>
<rect x="-42.5" y="-43" width="166" height="166" rx="83" fill="#31C48D"/>
<path d="M35.656 50.9105C35.0498 50.9101 34.4624 50.6999 33.9935 50.3155L26.1535 43.893C25.0815 42.9618 24.9445 41.3468 25.8442 40.2482C26.7439 39.1495 28.3542 38.9656 29.4785 39.833L35.551 44.803L53.051 28.6855C53.7088 27.9034 54.7607 27.5741 55.747 27.8416C56.7334 28.1091 57.4748 28.9247 57.6473 29.9319C57.8199 30.9392 57.3921 31.9551 56.551 32.5355L37.441 50.2105C36.9575 50.6636 36.3187 50.9141 35.656 50.9105Z" fill="white"/>
</g>
<rect x="5.5" y="5" width="70" height="70" rx="35" stroke="#BCF0DA" stroke-width="10"/>
<defs>
<clipPath id="clip0_2803_16882">
<rect x="0.5" width="80" height="80" rx="40" fill="white"/>
</clipPath>
</defs>
</svg>
