<svg width="137" height="134" viewBox="0 0 137 134" fill="none" xmlns="http://www.w3.org/2000/svg">
<rect x="1" y="14.5" width="119" height="119" rx="11.5" fill="#F9FAFB"/>
<rect x="1" y="14.5" width="119" height="119" rx="11.5" stroke="#E5E7EB"/>
<g clip-path="url(#clip0_3047_11222)">
<rect x="104.5" width="32" height="32" rx="16" fill="#1D4ED8"/>
<g filter="url(#filter0_d_3047_11222)">
<path d="M120.945 23.6875H129.445M122.944 9.6875L113.946 18.6859C113.287 19.3446 112.767 20.1441 112.609 21.062C112.449 21.9888 112.396 23.139 112.944 23.6875C113.493 24.236 114.643 24.1828 115.57 24.0229C116.488 23.8646 117.287 23.3446 117.946 22.6859L126.944 13.6875M122.944 9.6875C122.944 9.6875 125.944 6.6875 127.944 8.6875C129.944 10.6875 126.944 13.6875 126.944 13.6875M122.944 9.6875L126.944 13.6875" stroke="white" stroke-width="1.5" stroke-linecap="round" stroke-linejoin="round"/>
</g>
</g>
<path opacity="0.4" d="M70.61 83.3334H50.3878C42.4795 83.3334 37.1667 77.7868 37.1667 69.5301V50.4724C37.1667 42.2157 42.4795 36.6667 50.3878 36.6667H70.6123C78.5207 36.6667 83.8334 42.2157 83.8334 50.4724V69.5301C83.8334 77.7868 78.5207 83.3334 70.61 83.3334Z" fill="#1D4ED8"/>
<path fill-rule="evenodd" clip-rule="evenodd" d="M58.7385 52.2418C58.7385 55.4385 56.1368 58.0402 52.9401 58.0402C49.7411 58.0402 47.1418 55.4385 47.1418 52.2418C47.1418 49.0452 49.7411 46.4412 52.9401 46.4412C56.1368 46.4412 58.7385 49.0452 58.7385 52.2418ZM77.7677 64.8712C78.3114 65.3986 78.7011 66.0006 78.9577 66.6422C79.7347 68.5836 79.3311 70.9169 78.5004 72.8396C77.5157 75.1286 75.6304 76.8576 73.2551 77.6136C72.2004 77.9519 71.0944 78.0966 69.9907 78.0966H50.4351C48.4891 78.0966 46.7671 77.6439 45.3554 76.7946C44.4711 76.2626 44.3147 75.0376 44.9704 74.2396C46.0671 72.9096 47.1497 71.5749 48.2417 70.2286C50.3231 67.6526 51.7254 66.9059 53.2841 67.5616C53.9164 67.8322 54.5511 68.2406 55.2044 68.6699C56.9451 69.8226 59.3647 71.4046 62.5521 69.6872C64.7308 68.4959 65.9954 66.4574 67.0962 64.683L67.1184 64.6472C67.1925 64.5285 67.2659 64.4098 67.3392 64.2915C67.7135 63.6866 68.0821 63.0909 68.4997 62.5426C69.0177 61.8636 70.9404 59.7402 73.4254 61.2522C75.0097 62.2042 76.3421 63.4922 77.7677 64.8712Z" fill="#1D4ED8"/>
<path d="M19.12 110.16C18.3093 110.16 17.616 110.043 17.04 109.808C16.464 109.573 16.0213 109.2 15.712 108.688C15.4133 108.165 15.264 107.477 15.264 106.624V98.944H16.544V106.656C16.544 107.499 16.768 108.107 17.216 108.48C17.6747 108.843 18.3093 109.024 19.12 109.024C19.9733 109.024 20.6293 108.843 21.088 108.48C21.5467 108.107 21.776 107.499 21.776 106.656V98.944H23.056V106.624C23.056 107.467 22.9013 108.149 22.592 108.672C22.2933 109.195 21.8507 109.573 21.264 109.808C20.6773 110.043 19.9627 110.16 19.12 110.16ZM25.4645 113.536V102H26.6965V102.576C26.8672 102.469 27.0805 102.363 27.3365 102.256C27.6032 102.139 27.8858 102.043 28.1845 101.968C28.4832 101.883 28.7712 101.84 29.0485 101.84C29.7312 101.84 30.2858 101.984 30.7125 102.272C31.1392 102.549 31.4538 102.987 31.6565 103.584C31.8698 104.181 31.9765 104.955 31.9765 105.904C31.9765 106.949 31.8538 107.787 31.6085 108.416C31.3738 109.035 30.9952 109.483 30.4725 109.76C29.9605 110.027 29.2938 110.16 28.4725 110.16C28.1418 110.16 27.8058 110.139 27.4645 110.096C27.1338 110.053 26.8778 110.016 26.6965 109.984V113.536H25.4645ZM28.4085 109.072C28.9845 109.072 29.4378 108.965 29.7685 108.752C30.1098 108.539 30.3498 108.203 30.4885 107.744C30.6272 107.275 30.6965 106.661 30.6965 105.904C30.6965 104.827 30.5365 104.069 30.2165 103.632C29.8965 103.184 29.4485 102.96 28.8725 102.96C28.6165 102.96 28.3498 102.992 28.0725 103.056C27.8058 103.12 27.5498 103.2 27.3045 103.296C27.0592 103.381 26.8565 103.472 26.6965 103.568V108.912C26.8672 108.933 27.1178 108.965 27.4485 109.008C27.7792 109.051 28.0992 109.072 28.4085 109.072ZM34.0136 110V98.528H35.2456V110H34.0136ZM40.724 110.16C39.828 110.16 39.1293 110.005 38.628 109.696C38.1373 109.387 37.7907 108.917 37.588 108.288C37.396 107.659 37.3 106.864 37.3 105.904C37.3 104.987 37.4067 104.229 37.62 103.632C37.844 103.035 38.2067 102.587 38.708 102.288C39.2093 101.989 39.8813 101.84 40.724 101.84C41.5773 101.84 42.2547 101.989 42.756 102.288C43.2573 102.587 43.6147 103.035 43.828 103.632C44.052 104.229 44.164 104.987 44.164 105.904C44.164 106.864 44.0627 107.659 43.86 108.288C43.668 108.917 43.3213 109.387 42.82 109.696C42.3293 110.005 41.6307 110.16 40.724 110.16ZM40.724 109.088C41.3427 109.088 41.8067 108.981 42.116 108.768C42.4253 108.544 42.628 108.197 42.724 107.728C42.8307 107.259 42.884 106.651 42.884 105.904C42.884 105.168 42.82 104.581 42.692 104.144C42.564 103.707 42.3453 103.392 42.036 103.2C41.7267 103.008 41.2893 102.912 40.724 102.912C40.1693 102.912 39.732 103.008 39.412 103.2C39.1027 103.392 38.884 103.707 38.756 104.144C38.628 104.581 38.564 105.168 38.564 105.904C38.564 106.651 38.612 107.259 38.708 107.728C38.8147 108.197 39.0227 108.544 39.332 108.768C39.6413 108.981 40.1053 109.088 40.724 109.088ZM47.8648 110.16C47.1288 110.16 46.5688 109.952 46.1848 109.536C45.8008 109.12 45.6088 108.512 45.6088 107.712C45.6088 107.189 45.6994 106.763 45.8808 106.432C46.0621 106.101 46.3341 105.851 46.6968 105.68C47.0701 105.499 47.5288 105.387 48.0728 105.344L50.5368 105.104V104.416C50.5368 103.872 50.4141 103.488 50.1688 103.264C49.9341 103.04 49.5821 102.928 49.1128 102.928C48.8461 102.928 48.5261 102.939 48.1528 102.96C47.7901 102.981 47.4274 103.008 47.0648 103.04C46.7021 103.072 46.3821 103.104 46.1048 103.136L46.0408 102.192C46.2968 102.139 46.6061 102.085 46.9688 102.032C47.3314 101.979 47.7101 101.936 48.1048 101.904C48.4994 101.861 48.8621 101.84 49.1927 101.84C49.8008 101.84 50.2968 101.936 50.6808 102.128C51.0648 102.309 51.3421 102.592 51.5128 102.976C51.6941 103.349 51.7848 103.829 51.7848 104.416V108.464C51.8061 108.699 51.8968 108.869 52.0568 108.976C52.2274 109.083 52.4408 109.152 52.6968 109.184L52.6488 110.16C52.4994 110.16 52.3554 110.155 52.2168 110.144C52.0781 110.133 51.9448 110.112 51.8168 110.08C51.6994 110.059 51.5821 110.032 51.4648 110C51.3261 109.947 51.1928 109.883 51.0648 109.808C50.9474 109.733 50.8301 109.643 50.7128 109.536C50.5101 109.621 50.2488 109.712 49.9288 109.808C49.6194 109.904 49.2834 109.984 48.9208 110.048C48.5688 110.123 48.2168 110.16 47.8648 110.16ZM48.0728 109.12C48.3608 109.12 48.6594 109.093 48.9688 109.04C49.2781 108.987 49.5714 108.923 49.8488 108.848C50.1261 108.773 50.3554 108.704 50.5368 108.64V106.032L48.2168 106.256C47.7368 106.299 47.3901 106.437 47.1768 106.672C46.9741 106.907 46.8728 107.243 46.8728 107.68C46.8728 108.128 46.9741 108.48 47.1768 108.736C47.3794 108.992 47.6781 109.12 48.0728 109.12ZM56.68 110.16C56.36 110.16 56.056 110.123 55.768 110.048C55.48 109.984 55.2133 109.867 54.968 109.696C54.7333 109.525 54.5253 109.291 54.344 108.992C54.1627 108.683 54.024 108.288 53.928 107.808C53.832 107.328 53.784 106.747 53.784 106.064C53.784 105.115 53.896 104.331 54.12 103.712C54.344 103.083 54.7013 102.613 55.192 102.304C55.6827 101.995 56.3333 101.84 57.144 101.84C57.3467 101.84 57.5707 101.851 57.816 101.872C58.0613 101.893 58.296 101.92 58.52 101.952C58.7547 101.984 58.9413 102.016 59.08 102.048V98.528H60.328V110H59.096V109.472C58.9253 109.568 58.7013 109.669 58.424 109.776C58.1573 109.883 57.8693 109.973 57.56 110.048C57.2613 110.123 56.968 110.16 56.68 110.16ZM56.84 109.04C57.1173 109.04 57.3947 109.008 57.672 108.944C57.96 108.88 58.2267 108.805 58.472 108.72C58.7173 108.624 58.92 108.539 59.08 108.464V103.104C58.952 103.083 58.776 103.061 58.552 103.04C58.328 103.008 58.0933 102.981 57.848 102.96C57.6133 102.939 57.4 102.928 57.208 102.928C56.664 102.928 56.2373 103.045 55.928 103.28C55.6187 103.515 55.3947 103.867 55.256 104.336C55.128 104.795 55.064 105.371 55.064 106.064C55.064 106.704 55.112 107.221 55.208 107.616C55.304 108 55.432 108.299 55.592 108.512C55.7627 108.715 55.9547 108.853 56.168 108.928C56.3813 109.003 56.6053 109.04 56.84 109.04ZM66.344 110V98.944H67.624V110H66.344ZM70.1208 110V102H71.3528V102.56C71.5234 102.453 71.7368 102.347 71.9928 102.24C72.2488 102.133 72.5208 102.043 72.8088 101.968C73.1074 101.883 73.3901 101.84 73.6568 101.84C74.1901 101.84 74.6168 101.904 74.9368 102.032C75.2674 102.16 75.5341 102.368 75.7368 102.656C75.9501 102.539 76.2114 102.416 76.5208 102.288C76.8301 102.16 77.1608 102.053 77.5128 101.968C77.8754 101.883 78.2274 101.84 78.5688 101.84C79.1128 101.84 79.5608 101.909 79.9128 102.048C80.2648 102.187 80.5368 102.411 80.7288 102.72C80.9314 103.029 81.0701 103.435 81.1448 103.936C81.2301 104.427 81.2728 105.035 81.2728 105.76V110H80.0408V105.808C80.0408 105.115 79.9981 104.56 79.9128 104.144C79.8381 103.728 79.6834 103.429 79.4488 103.248C79.2141 103.056 78.8568 102.96 78.3767 102.96C78.0994 102.96 77.8168 102.992 77.5288 103.056C77.2514 103.109 76.9901 103.184 76.7448 103.28C76.5101 103.365 76.3181 103.451 76.1688 103.536C76.2434 103.813 76.2914 104.16 76.3128 104.576C76.3448 104.981 76.3608 105.403 76.3608 105.84V110H75.1288V105.872C75.1288 105.147 75.0914 104.576 75.0168 104.16C74.9421 103.733 74.7821 103.429 74.5368 103.248C74.3021 103.056 73.9448 102.96 73.4648 102.96C73.1981 102.96 72.9261 102.992 72.6488 103.056C72.3821 103.109 72.1368 103.184 71.9128 103.28C71.6888 103.365 71.5021 103.451 71.3528 103.536V110H70.1208ZM85.2398 110.16C84.5038 110.16 83.9438 109.952 83.5598 109.536C83.1758 109.12 82.9838 108.512 82.9838 107.712C82.9838 107.189 83.0744 106.763 83.2558 106.432C83.4371 106.101 83.7091 105.851 84.0718 105.68C84.4451 105.499 84.9038 105.387 85.4478 105.344L87.9118 105.104V104.416C87.9118 103.872 87.7891 103.488 87.5438 103.264C87.3091 103.04 86.9571 102.928 86.4878 102.928C86.2211 102.928 85.9011 102.939 85.5278 102.96C85.1651 102.981 84.8024 103.008 84.4398 103.04C84.0771 103.072 83.7571 103.104 83.4798 103.136L83.4158 102.192C83.6718 102.139 83.9811 102.085 84.3438 102.032C84.7064 101.979 85.0851 101.936 85.4798 101.904C85.8744 101.861 86.2371 101.84 86.5677 101.84C87.1758 101.84 87.6718 101.936 88.0558 102.128C88.4398 102.309 88.7171 102.592 88.8878 102.976C89.0691 103.349 89.1598 103.829 89.1598 104.416V108.464C89.1811 108.699 89.2718 108.869 89.4318 108.976C89.6024 109.083 89.8158 109.152 90.0718 109.184L90.0238 110.16C89.8744 110.16 89.7304 110.155 89.5918 110.144C89.4531 110.133 89.3198 110.112 89.1918 110.08C89.0744 110.059 88.9571 110.032 88.8398 110C88.7011 109.947 88.5678 109.883 88.4398 109.808C88.3224 109.733 88.2051 109.643 88.0878 109.536C87.8851 109.621 87.6238 109.712 87.3038 109.808C86.9944 109.904 86.6584 109.984 86.2958 110.048C85.9438 110.123 85.5918 110.16 85.2398 110.16ZM85.4478 109.12C85.7358 109.12 86.0344 109.093 86.3438 109.04C86.6531 108.987 86.9464 108.923 87.2238 108.848C87.5011 108.773 87.7304 108.704 87.9118 108.64V106.032L85.5918 106.256C85.1118 106.299 84.7651 106.437 84.5518 106.672C84.3491 106.907 84.2478 107.243 84.2478 107.68C84.2478 108.128 84.3491 108.48 84.5518 108.736C84.7544 108.992 85.0531 109.12 85.4478 109.12ZM94.5369 113.76C93.7049 113.76 93.0329 113.685 92.5209 113.536C92.0195 113.397 91.6515 113.152 91.4169 112.8C91.1929 112.448 91.0809 111.968 91.0809 111.36C91.0809 111.051 91.1289 110.784 91.2249 110.56C91.3209 110.347 91.4595 110.149 91.6409 109.968C91.8329 109.776 92.0675 109.579 92.3449 109.376C92.2062 109.269 92.0942 109.12 92.0089 108.928C91.9342 108.725 91.8969 108.501 91.8969 108.256C91.8969 108.181 91.9235 108.069 91.9769 107.92C92.0409 107.771 92.1155 107.616 92.2009 107.456C92.2862 107.285 92.3662 107.131 92.4409 106.992C92.2169 106.885 92.0089 106.741 91.8169 106.56C91.6355 106.368 91.4862 106.112 91.3689 105.792C91.2515 105.472 91.1929 105.067 91.1929 104.576C91.1929 103.915 91.3155 103.387 91.5609 102.992C91.8169 102.587 92.1689 102.293 92.6169 102.112C93.0755 101.931 93.5982 101.84 94.1849 101.84C94.4729 101.84 94.7769 101.861 95.0969 101.904C95.4169 101.947 95.6675 101.995 95.8489 102.048L98.2329 101.984V103.04L96.7289 103.008C96.8782 103.157 97.0009 103.355 97.0969 103.6C97.2035 103.845 97.2569 104.171 97.2569 104.576C97.2569 105.269 97.1395 105.813 96.9049 106.208C96.6702 106.603 96.3235 106.88 95.8649 107.04C95.4062 107.2 94.8302 107.28 94.1369 107.28C94.0622 107.28 93.9342 107.275 93.7529 107.264C93.5822 107.243 93.4542 107.227 93.3689 107.216C93.3049 107.365 93.2409 107.536 93.1769 107.728C93.1129 107.92 93.0809 108.053 93.0809 108.128C93.0809 108.288 93.0969 108.416 93.1289 108.512C93.1715 108.597 93.2515 108.667 93.3689 108.72C93.4969 108.773 93.6889 108.811 93.9449 108.832C94.2009 108.843 94.5529 108.848 95.0009 108.848C95.7689 108.848 96.3822 108.912 96.8409 109.04C97.2995 109.168 97.6249 109.403 97.8169 109.744C98.0195 110.075 98.1209 110.56 98.1209 111.2C98.1209 112.107 97.8062 112.757 97.1769 113.152C96.5475 113.557 95.6675 113.76 94.5369 113.76ZM94.5529 112.704C95.3422 112.704 95.9235 112.592 96.2969 112.368C96.6702 112.144 96.8569 111.776 96.8569 111.264C96.8569 110.869 96.7929 110.576 96.6649 110.384C96.5475 110.203 96.3449 110.08 96.0569 110.016C95.7689 109.963 95.3849 109.936 94.9049 109.936C94.8089 109.936 94.6755 109.936 94.5049 109.936C94.3342 109.925 94.1582 109.92 93.9769 109.92C93.7955 109.909 93.6302 109.899 93.4809 109.888C93.3422 109.877 93.2462 109.872 93.1929 109.872C92.9795 110.032 92.8035 110.176 92.6649 110.304C92.5369 110.443 92.4462 110.581 92.3929 110.72C92.3395 110.869 92.3129 111.045 92.3129 111.248C92.3129 111.6 92.3769 111.883 92.5049 112.096C92.6329 112.309 92.8569 112.464 93.1769 112.56C93.5075 112.656 93.9662 112.704 94.5529 112.704ZM94.1849 106.288C94.8462 106.288 95.3155 106.16 95.5929 105.904C95.8702 105.637 96.0089 105.195 96.0089 104.576C96.0089 103.957 95.8702 103.515 95.5929 103.248C95.3155 102.981 94.8462 102.848 94.1849 102.848C93.5662 102.848 93.1182 102.981 92.8409 103.248C92.5742 103.515 92.4409 103.957 92.4409 104.576C92.4409 105.195 92.5742 105.637 92.8409 105.904C93.1182 106.16 93.5662 106.288 94.1849 106.288ZM102.39 110.16C101.59 110.16 100.956 110.005 100.486 109.696C100.028 109.387 99.6969 108.928 99.4943 108.32C99.2916 107.712 99.1903 106.955 99.1903 106.048C99.1903 105.035 99.3289 104.224 99.6063 103.616C99.8836 102.997 100.273 102.549 100.774 102.272C101.276 101.984 101.868 101.84 102.55 101.84C103.617 101.84 104.422 102.139 104.966 102.736C105.51 103.323 105.782 104.272 105.782 105.584L105.718 106.528H100.454C100.465 107.36 100.62 107.989 100.918 108.416C101.217 108.843 101.756 109.056 102.534 109.056C102.833 109.056 103.158 109.051 103.51 109.04C103.873 109.019 104.23 108.997 104.582 108.976C104.934 108.955 105.233 108.933 105.478 108.912L105.51 109.888C105.254 109.931 104.94 109.973 104.566 110.016C104.204 110.059 103.83 110.091 103.446 110.112C103.062 110.144 102.71 110.16 102.39 110.16ZM100.454 105.52H104.534C104.534 104.539 104.374 103.856 104.054 103.472C103.745 103.077 103.244 102.88 102.55 102.88C102.102 102.88 101.724 102.971 101.414 103.152C101.105 103.323 100.865 103.6 100.694 103.984C100.534 104.368 100.454 104.88 100.454 105.52Z" fill="#6B7280"/>
<defs>
<filter id="filter0_d_3047_11222" x="93.5" y="-11" width="54" height="54" filterUnits="userSpaceOnUse" color-interpolation-filters="sRGB">
<feFlood flood-opacity="0" result="BackgroundImageFix"/>
<feColorMatrix in="SourceAlpha" type="matrix" values="0 0 0 0 0 0 0 0 0 0 0 0 0 0 0 0 0 0 127 0" result="hardAlpha"/>
<feOffset/>
<feGaussianBlur stdDeviation="7.5"/>
<feComposite in2="hardAlpha" operator="out"/>
<feColorMatrix type="matrix" values="0 0 0 0 0 0 0 0 0 0 0 0 0 0 0 0 0 0 0.08 0"/>
<feBlend mode="normal" in2="BackgroundImageFix" result="effect1_dropShadow_3047_11222"/>
<feBlend mode="normal" in="SourceGraphic" in2="effect1_dropShadow_3047_11222" result="shape"/>
</filter>
<clipPath id="clip0_3047_11222">
<rect x="104.5" width="32" height="32" rx="16" fill="white"/>
</clipPath>
</defs>
</svg>
