<svg width="25" height="24" viewBox="0 0 25 24" fill="none" xmlns="http://www.w3.org/2000/svg">
<path fill-rule="evenodd" clip-rule="evenodd" d="M6.28438 4.98645C5.73287 4.99507 5.29246 5.44859 5.30001 6.00012V11.8322C5.28216 11.9401 5.28216 12.0503 5.30001 12.1583V18.0001C5.29491 18.3608 5.48438 18.6962 5.79588 18.878C6.10738 19.0598 6.49264 19.0598 6.80414 18.878C7.11563 18.6962 7.30511 18.3608 7.30001 18.0001V13.0001H17.3V18.0001C17.2949 18.3608 17.4844 18.6962 17.7959 18.878C18.1074 19.0598 18.4926 19.0598 18.8041 18.878C19.1156 18.6962 19.3051 18.3608 19.3 18.0001V12.1681C19.3179 12.0601 19.3179 11.9499 19.3 11.8419V6.00012C19.3037 5.72982 19.1978 5.46954 19.0065 5.27857C18.8152 5.08761 18.5547 4.98223 18.2844 4.98645C17.7329 4.99507 17.2925 5.44859 17.3 6.00012V11.0001H7.30001V6.00012C7.30371 5.72982 7.19783 5.46954 7.0065 5.27857C6.81517 5.08761 6.55468 4.98223 6.28438 4.98645Z" fill="#233876"/>
<path fill-rule="evenodd" clip-rule="evenodd" d="M3.28426 6.98645C2.73275 6.99507 2.29233 7.44859 2.29989 8.00012V11.0001H1.29989C0.939251 10.995 0.603806 11.1845 0.421999 11.496C0.240193 11.8075 0.240193 12.1928 0.421999 12.5042C0.603806 12.8157 0.939251 13.0052 1.29989 13.0001H2.29989V16.0001C2.29479 16.3608 2.48426 16.6962 2.79576 16.878C3.10726 17.0598 3.49252 17.0598 3.80401 16.878C4.11551 16.6962 4.30499 16.3608 4.29989 16.0001V12.1681C4.31774 12.0601 4.31774 11.9499 4.29989 11.8419V8.00012C4.30359 7.72982 4.19771 7.46954 4.00638 7.27857C3.81504 7.08761 3.55455 6.98223 3.28426 6.98645ZM21.2843 6.98645C20.7327 6.99507 20.2923 7.44859 20.2999 8.00012V11.8322C20.282 11.9401 20.282 12.0503 20.2999 12.1583V16.0001C20.2948 16.3608 20.4843 16.6962 20.7958 16.878C21.1073 17.0598 21.4925 17.0598 21.804 16.878C22.1155 16.6962 22.305 16.3608 22.2999 16.0001V13.0001H23.2999C23.6605 13.0052 23.996 12.8157 24.1778 12.5042C24.3596 12.1928 24.3596 11.8075 24.1778 11.496C23.996 11.1845 23.6605 10.995 23.2999 11.0001H22.2999V8.00012C22.3036 7.72982 22.1977 7.46954 22.0064 7.27857C21.815 7.08761 21.5546 6.98223 21.2843 6.98645Z" fill="#233876"/>
</svg>
